<svg class="main-nav__logo-icon" width="183" height="70" viewBox="0 0 183 70" xmlns="http://www.w3.org/2000/svg"><defs><path id="a" d="M.06.639h182.944V70H.06z"/></defs><path d="M57.431 6.544v50.775c0 4.523.164 9.128.324 11.792H46.849l-.484-5.732h-.241C43.702 67.738 38.852 70 33.763 70c-9.369 0-16.88-7.997-16.88-20.272-.082-13.246 8.239-21.002 17.691-21.002 4.925 0 8.641 1.778 10.419 4.442h.16V6.544h12.278zM45.153 46.417c0-.729 0-1.536-.16-2.262-.729-3.314-3.393-5.981-7.19-5.981-5.654 0-8.481 5.011-8.481 11.23 0 6.624 3.314 10.824 8.399 10.824 3.556 0 6.465-2.422 7.19-5.896.163-.807.242-1.778.242-2.748v-5.167zm62.757-14.266v-2.278h18.197v2.278h-5.359l9.803 27.151h.206l10.207-27.151h-6.167v-2.278h13.747v2.278h-4.854l-13.946 36.96h-3.435l-13.546-36.96h-4.853M.06 69.111h12.218V29.87H.06zm182.845-12.555C180.942 65.682 174.269 70 165.634 70c-10.01 0-19.271-7.958-19.271-20.076 0-11.584 7.298-21.044 18.976-21.044 10.006 0 17.566 6.772 17.666 17.47h-27.776v4.022c0 9.714 1.278 17.566 11.973 17.566 5.593 0 12.169-4.906 13.544-11.382h2.159zm-8.832-13.052v-3.338c0-7.065-4.121-9.323-9.026-9.323-4.503 0-9.718 3.454-9.718 12.661h18.744zm-70.822 23.327V28.88c-3.569.893-7.432.99-11.098.99H77.585v-7.133c0-10.108 2.082-20.216 10.899-20.216 1.946 0 5.511.687 5.651 2.18.042.451-1.581 1.426-1.797 3.096-.374 2.87 1.695 4.945 4.47 4.832 2.495-.102 4.062-2.08 4.062-4.162 0-6.043-7.53-7.828-12.188-7.828-10.701 0-18.827 8.324-18.827 24.378v4.853h-7.63v2.281h7.63v34.68h-7.63v2.28h21.407v-2.28h-6.047v-34.68H95.52v34.68h-5.946v2.28h19.525v-2.28h-5.848" fill="#ffffff" mask="url(AB)" fill-rule="evenodd"/></svg>