<svg aria-hidden="true" style="position: absolute; width: 0; height: 0; overflow: hidden;" version="1.1" xmlns="http://www.w3.org/2000/svg" xmlns:xlink="http://www.w3.org/1999/xlink">
<defs>
<symbol id="icon-one-house-shape" viewBox="0 0 31 32">
<path fill="#f7f7f7" style="fill: var(--color1, #f7f7f7)" d="M15.942 0c8.174 0 14.8 6.626 14.8 14.8v0 23.881h-30.741v-22.739c0-8.804 7.137-15.942 15.942-15.942v0z"></path>
<path fill="#fff" style="fill: var(--color2, #fff)" d="M16.547 0.968c7.385 0 13.372 5.987 13.372 13.372v0 24.776h-26.626v-24.894c0-7.32 5.934-13.255 13.255-13.255v0z"></path>
</symbol>
<symbol id="icon-onehouse_attatch_document" viewBox="0 0 32 32">
<path fill="#f85a5e" style="fill: var(--color3, #f85a5e)" d="M20.071 12.257l-1.423-1.423-7.116 7.115c-0.546 0.546-0.884 1.301-0.884 2.135 0 1.667 1.352 3.019 3.019 3.019 0.834 0 1.589-0.338 2.135-0.884l8.539-8.539c0.905-0.91 1.465-2.164 1.465-3.549 0-2.779-2.253-5.031-5.031-5.031-1.385 0-2.639 0.56-3.549 1.465l-8.985 8.984c-1.239 1.264-2.003 2.998-2.003 4.91 0 3.876 3.142 7.017 7.017 7.017 1.912 0 3.646-0.765 4.911-2.005l-0.001 0.001 0.018-0.019 6.12-6.119-1.424-1.423-6.138 6.137c-0.906 0.906-2.157 1.466-3.539 1.466-2.764 0-5.005-2.241-5.005-5.005 0-1.382 0.56-2.633 1.465-3.538v0l0.020-0.018 8.967-8.965c0.546-0.546 1.301-0.884 2.135-0.884 1.667 0 3.019 1.352 3.019 3.019 0 0.834-0.338 1.588-0.884 2.135l-8.541 8.538c-0.182 0.182-0.434 0.295-0.712 0.295-0.556 0-1.006-0.45-1.006-1.006 0-0.278 0.113-0.529 0.295-0.711l7.116-7.116z"></path>
</symbol>
<symbol id="icon-onehouse_one_house_match" viewBox="0 0 38 32">
<path fill="#540f11" style="fill: var(--color4, #540f11)" d="M19.094 0.009l19.086 14.756h-7.438v17.245h-23.312v-17.245h-7.436zM26.478 11.11l-7.391-5.711-7.391 5.717v16.631h14.783z"></path>
</symbol>
<symbol id="icon-onehouse_add_form_field" viewBox="0 0 32 32">
<path fill="#f85a5e" style="fill: var(--color3, #f85a5e)" d="M17.164 10.182h-2.327v4.655h-4.655v2.327h4.655v4.655h2.327v-4.655h4.655v-2.327h-4.655zM16 4.364c-6.427 0-11.636 5.21-11.636 11.636s5.21 11.636 11.636 11.636c6.427 0 11.636-5.21 11.636-11.636v0c-0.003-6.426-5.211-11.634-11.636-11.636h-0zM16 25.309c-5.141 0-9.309-4.168-9.309-9.309s4.168-9.309 9.309-9.309c5.141 0 9.309 4.168 9.309 9.309v0c-0.007 5.138-4.171 9.302-9.308 9.309h-0.001z"></path>
</symbol>
<symbol id="icon-onehouse_prop_history_landrec_link" viewBox="0 0 26 32">
<path fill="#4d1514" style="fill: var(--color5, #4d1514)" d="M25.86 32.001h-25.857v-22.903l9.256-9.098h16.587l0.013 26.592zM1.832 30.173h22.199l-0.013-28.343h-14.011l-8.175 8.035z"></path>
<path fill="#4d1514" style="fill: var(--color5, #4d1514)" d="M10.548 10.395h-9.63v-1.829h7.802v-7.653h1.829z"></path>
<path fill="#f85a5e" style="fill: var(--color3, #f85a5e)" d="M21.337 14.412h-17.083v-1.829h17.083z"></path>
<path fill="#f85a5e" style="fill: var(--color3, #f85a5e)" d="M18.29 18.274h-14.036v-1.829h14.036z"></path>
<path fill="#f85a5e" style="fill: var(--color3, #f85a5e)" d="M13.504 22.315h-9.25v-1.829h9.25z"></path>
<path fill="#f85a5e" style="fill: var(--color3, #f85a5e)" d="M7.409 26.357h-3.155v-1.829h3.155z"></path>
<path fill="#f85a5e" style="fill: var(--color3, #f85a5e)" d="M21.235 8.077h-8.663v-1.829h8.663z"></path>
</symbol>
<symbol id="icon-onehouse_prop_history_previous_sale_mount" viewBox="0 0 26 32">
<path fill="#f85a5e" style="fill: var(--color3, #f85a5e)" d="M13.847 16.201c1.065 0.077 1.728 0.71 1.759 1.682h1.435c-0.031-1.698-1.235-2.809-3.194-2.948v-1.188h-0.972v1.187c-0.334 0.023-0.645 0.078-0.943 0.162l0.033-0.008c-1.27 0.32-2.203 1.435-2.24 2.774l-0 0.004c0 1.188 0.633 1.944 2.006 2.407 0.278 0.093 0.647 0.199 1.142 0.34v3.503c-1.358-0.185-1.898-0.788-2.083-2.315h-1.434c0.047 2.13 1.22 3.335 3.52 3.596v1.204h0.972v-1.187c2.099-0.077 3.488-1.358 3.488-3.179 0.001-0.024 0.001-0.053 0.001-0.081 0-0.837-0.433-1.573-1.087-1.996l-0.009-0.006c-0.607-0.321-1.313-0.564-2.058-0.691l-0.042-0.006-0.139-0.031-0.154-0.031zM12.874 19.166c-1.188-0.293-1.667-0.679-1.667-1.358 0-0.833 0.602-1.404 1.667-1.59zM13.847 20.848c0.093 0.031 0.093 0.031 0.199 0.062 1.329 0.293 1.761 0.664 1.761 1.482 0 0.972-0.741 1.636-1.96 1.728z"></path>
<path fill="#540f11" style="fill: var(--color4, #540f11)" d="M13.163 32.001c-0.006 0-0.013 0-0.020 0-3.452 0-6.595-1.323-8.95-3.49l0.009 0.009c-2.354-2.158-3.911-5.152-4.198-8.509l-0.003-0.048 1.488-0.123c0.258 3.017 1.637 5.67 3.715 7.574l0.009 0.008c2.082 1.913 4.871 3.086 7.934 3.086 6.45 0 11.685-5.201 11.74-11.638l0-0.005c0-0.004 0-0.008 0-0.012 0-3.166-1.274-6.034-3.336-8.12l0.001 0.001c-2.062-2.104-4.909-3.433-8.066-3.513l-0.015-0 0.037-1.493c5.322 0.141 9.848 3.401 11.829 8.014l0.033 0.086c0.639 1.482 1.010 3.207 1.010 5.018 0 0.007 0 0.014-0 0.021v-0.001c-0.031 7.263-5.925 13.138-13.192 13.138-0.009 0-0.018 0-0.026-0h0.001z"></path>
<path fill="#540f11" style="fill: var(--color4, #540f11)" d="M6.866 6.223l6.969-6.223v12.445z"></path>
<path fill="#540f11" style="fill: var(--color4, #540f11)" d="M9.106 6.223l3.236 2.887v-5.775zM6.866 6.223l6.969-6.223v12.445z"></path>
</symbol>
<symbol id="icon-onehouse_prop_snapshot_ground_rent" viewBox="0 0 32 32">
<path fill="#f85a5e" style="fill: var(--color3, #f85a5e)" d="M16.711 10.655c1.486 0.108 2.412 0.991 2.455 2.348h2.003c-0.043-2.369-1.723-3.92-4.458-4.114v-1.662h-1.354v1.662c-0.466 0.032-0.9 0.109-1.316 0.226l0.045-0.011c-1.772 0.447-3.071 2.003-3.123 3.871l-0 0.006c0 1.662 0.883 2.714 2.8 3.36 0.388 0.129 0.905 0.28 1.594 0.474v4.889c-1.895-0.258-2.646-1.098-2.908-3.231h-2.006c0.065 2.972 1.702 4.652 4.911 5.018v1.677h1.354v-1.655c2.932-0.108 4.871-1.895 4.871-4.437 0.001-0.034 0.002-0.073 0.002-0.113 0-1.169-0.605-2.196-1.518-2.787l-0.013-0.008c-0.848-0.448-1.832-0.786-2.871-0.961l-0.058-0.008-0.194-0.043-0.215-0.043zM15.357 14.791c-1.662-0.409-2.326-0.948-2.326-1.895 0-1.163 0.84-1.96 2.326-2.215zM16.711 17.138c0.129 0.043 0.129 0.043 0.28 0.086 1.852 0.409 2.455 0.926 2.455 2.068 0 1.354-1.034 2.283-2.735 2.412z"></path>
<path fill="#540f11" style="fill: var(--color4, #540f11)" d="M16 1.846c-7.815 0.006-14.148 6.342-14.148 14.158 0 5.826 3.519 10.83 8.547 13.003l0.092 0.035c1.597 0.678 3.454 1.072 5.403 1.072 7.819 0 14.158-6.339 14.158-14.158 0-5.79-3.476-10.769-8.455-12.963l-0.091-0.036c-1.617-0.703-3.501-1.111-5.48-1.111-0.009 0-0.019 0-0.028 0h0.001zM16 0c8.837 0 16 7.163 16 16s-7.163 16-16 16c-8.837 0-16-7.163-16-16v0c0-8.837 7.163-16 16-16v0z"></path>
</symbol>
<symbol id="icon-onehouse_hww_auction" viewBox="0 0 24 32">
<path fill="#8f7d7b" style="fill: var(--color6, #8f7d7b)" d="M15.059 13.295c-0.028 0.001-0.062 0.002-0.095 0.002-0.485 0-0.933-0.158-1.295-0.426l0.006 0.004c-0.332-0.283-0.542-0.702-0.542-1.17 0-0.042 0.002-0.083 0.005-0.124l-0 0.005v-1.094h1.528v0.63c0 0.002 0 0.004 0 0.006 0 0.132 0.008 0.262 0.024 0.389l-0.002-0.015c0.011 0.113 0.049 0.216 0.108 0.303l-0.001-0.002c0.055 0.072 0.142 0.118 0.239 0.118 0.009 0 0.017-0 0.025-0.001l-0.001 0c0.012 0.002 0.026 0.003 0.040 0.003 0.117 0 0.219-0.065 0.272-0.162l0.001-0.002c0.048-0.111 0.076-0.241 0.076-0.377 0-0.012-0-0.024-0.001-0.036l0 0.002v-1.444c0-0.001 0-0.002 0-0.003 0-0.124-0.008-0.247-0.024-0.366l0.002 0.014c-0.011-0.11-0.048-0.21-0.104-0.296l0.002 0.003c-0.052-0.072-0.136-0.118-0.231-0.118-0.008 0-0.016 0-0.024 0.001l0.001-0q-0.417 0-0.417 0.605h-1.348v-3.908h3.504v1.378h-2.108v1.035c0.081-0.096 0.179-0.175 0.289-0.233l0.005-0.003c0.12-0.065 0.263-0.103 0.414-0.103 0.008 0 0.015 0 0.023 0l-0.001-0c0.020-0.001 0.043-0.001 0.066-0.001 0.275 0 0.534 0.072 0.758 0.197l-0.008-0.004c0.209 0.129 0.375 0.311 0.481 0.527l0.003 0.008c0.113 0.23 0.195 0.498 0.232 0.78l0.001 0.013c0.041 0.282 0.065 0.607 0.065 0.938 0 0.011-0 0.022-0 0.033v-0.002c0 0.018 0 0.039 0 0.059 0 0.401-0.025 0.796-0.074 1.184l0.005-0.046c-0.038 0.339-0.135 0.648-0.28 0.928l0.007-0.015c-0.135 0.252-0.338 0.452-0.584 0.579l-0.008 0.004c-0.275 0.129-0.598 0.205-0.938 0.205-0.034 0-0.067-0.001-0.1-0.002l0.005 0z"></path>
<path fill="#400d11" style="fill: var(--color7, #400d11)" d="M15.023 0.733c-4.788 0.003-8.668 3.886-8.668 8.674 0 3.569 2.156 6.635 5.237 7.966l0.056 0.022c0.996 0.432 2.156 0.684 3.375 0.684 4.791 0 8.674-3.883 8.674-8.674 0-3.572-2.159-6.639-5.243-7.969l-0.056-0.022c-0.991-0.431-2.145-0.681-3.357-0.681-0.006 0-0.012 0-0.019 0h0.001zM15.023 0c5.194 0 9.405 4.211 9.405 9.405s-4.211 9.405-9.405 9.405c-5.194 0-9.405-4.211-9.405-9.405v0c0-5.194 4.211-9.405 9.405-9.405v0z"></path>
<path fill="#fff" style="fill: var(--color2, #fff)" d="M9.405 13.191c5.194 0 9.405 4.211 9.405 9.405s-4.211 9.405-9.405 9.405c-5.194 0-9.405-4.211-9.405-9.405v0c0-5.194 4.211-9.405 9.405-9.405v0z"></path>
<path fill="#ea414b" style="fill: var(--color8, #ea414b)" d="M14.761 21.885l-0.205-0.704c0.474-0.141 0.814-0.573 0.814-1.084s-0.34-0.943-0.806-1.082l-0.008-0.002 0.205-0.703c0.782 0.233 1.342 0.945 1.342 1.788 0 0.185-0.027 0.364-0.078 0.533l0.003-0.013c-0.182 0.613-0.655 1.085-1.255 1.264l-0.013 0.003z"></path>
<path fill="#ea414b" style="fill: var(--color8, #ea414b)" d="M15.214 23.298l-0.293-0.672c0.537-0.232 0.983-0.587 1.317-1.032l0.006-0.008c0.31-0.41 0.496-0.928 0.496-1.49s-0.186-1.080-0.501-1.496l0.005 0.006c-0.34-0.453-0.786-0.809-1.302-1.032l-0.021-0.008 0.293-0.672c0.659 0.286 1.207 0.724 1.615 1.271l0.007 0.010c0.397 0.529 0.636 1.197 0.636 1.921s-0.239 1.391-0.642 1.929l0.006-0.008c-0.416 0.558-0.963 0.995-1.597 1.272l-0.025 0.010z"></path>
<path fill="#400d11" style="fill: var(--color7, #400d11)" d="M10.593 22.963h-0.733v-3.253h0.733z"></path>
<path fill="#400d11" style="fill: var(--color7, #400d11)" d="M13.815 14.703v11.061l-4.685-2.989h-4.622v-4.923l4.617-0.010zM13.082 24.427v-8.352l-3.733 2.499-4.108 0.009v3.458h4.104z"></path>
<path fill="#400d11" style="fill: var(--color7, #400d11)" d="M9.227 26.345h-2.503l-1.13-3.625 0.7-0.218 0.97 3.11h0.957l-0.932-2.889 0.697-0.225z"></path>
</symbol>
<symbol id="icon-onehouse_hww_identifying" viewBox="0 0 24 32">
<path fill="#8f7d7b" style="fill: var(--color6, #8f7d7b)" d="M14.967 13.274q-0.973 0-1.415-0.513t-0.442-1.549v-0.768h1.507v0.772c-0 0.011-0 0.023-0 0.035 0 0.164 0.027 0.322 0.077 0.47l-0.003-0.010c0.060 0.121 0.183 0.202 0.325 0.202 0.148 0 0.276-0.089 0.332-0.217l0.001-0.002c0.047-0.183 0.073-0.393 0.073-0.609 0-0.038-0.001-0.075-0.002-0.112l0 0.005v-0.184c0-0.011 0-0.023 0-0.035 0-0.227-0.047-0.443-0.132-0.639l0.004 0.010c-0.080-0.171-0.25-0.287-0.447-0.287-0.018 0-0.036 0.001-0.054 0.003l0.002-0c-0.031 0-0.058 0-0.081 0.002-0.022 0.001-0.043 0.003-0.064 0.007l0.003-0v-1.319c0.018 0.001 0.038 0.002 0.059 0.002 0.196 0 0.377-0.064 0.523-0.173l-0.002 0.002c0.126-0.127 0.204-0.302 0.204-0.495 0-0.025-0.001-0.049-0.004-0.073l0 0.003q0-0.622-0.359-0.622c-0.009-0.001-0.020-0.002-0.031-0.002-0.126 0-0.234 0.074-0.283 0.181l-0.001 0.002c-0.052 0.125-0.082 0.271-0.082 0.423 0 0.013 0 0.027 0.001 0.040l-0-0.002v0.221h-1.52c-0.003-0.033-0.005-0.073-0.006-0.122s-0.002-0.093-0.002-0.138q0-1.010 0.471-1.482t1.445-0.472q1.878 0 1.878 1.954c0.001 0.022 0.001 0.048 0.001 0.074 0 0.295-0.054 0.577-0.153 0.837l0.005-0.016c-0.101 0.236-0.296 0.416-0.536 0.493l-0.006 0.002c0.191 0.085 0.348 0.216 0.462 0.38l0.002 0.004c0.102 0.166 0.172 0.363 0.195 0.574l0.001 0.006c0.029 0.232 0.046 0.501 0.046 0.774 0 0.023-0 0.046-0 0.068l0-0.003q0 1.102-0.461 1.699t-1.53 0.597z"></path>
<path fill="#400d11" style="fill: var(--color7, #400d11)" d="M15.023 0.733c-4.788 0.003-8.668 3.886-8.668 8.674 0 3.569 2.156 6.635 5.237 7.966l0.056 0.022c0.996 0.432 2.156 0.684 3.375 0.684 4.791 0 8.674-3.883 8.674-8.674 0-3.572-2.159-6.639-5.243-7.969l-0.056-0.022c-0.991-0.431-2.145-0.681-3.357-0.681-0.006 0-0.012 0-0.019 0h0.001zM15.023 0c5.194 0 9.405 4.211 9.405 9.405s-4.211 9.405-9.405 9.405c-5.194 0-9.405-4.211-9.405-9.405v0c0-5.194 4.211-9.405 9.405-9.405v0z"></path>
<path fill="#fff" style="fill: var(--color2, #fff)" d="M9.405 13.191c5.194 0 9.405 4.211 9.405 9.405s-4.211 9.405-9.405 9.405c-5.194 0-9.405-4.211-9.405-9.405v0c0-5.194 4.211-9.405 9.405-9.405v0z"></path>
<path fill="#400d11" style="fill: var(--color7, #400d11)" d="M10.005 15.023c0.001 0 0.002 0 0.003 0 3.035 0 5.496 2.461 5.496 5.496 0 3.034-2.459 5.494-5.493 5.496h-0.007c-0.001 0-0.002 0-0.004 0-3.035 0-5.496-2.461-5.496-5.496 0-3.034 2.459-5.494 5.492-5.496h0zM10.005 25.282h0.006c2.629-0.002 4.76-2.134 4.76-4.763 0-2.631-2.133-4.763-4.763-4.763-0.001 0-0.002 0-0.003 0h-0.006c-2.629 0.002-4.76 2.134-4.76 4.763 0 2.631 2.133 4.763 4.763 4.763 0.001 0 0.002 0 0.003 0h-0z"></path>
<path fill="#400d11" style="fill: var(--color7, #400d11)" d="M16.463 27.944l-3.161-3.157 0.518-0.518 3.161 3.157z"></path>
<path fill="#ea414b" style="fill: var(--color8, #ea414b)" d="M10.005 17.717l3.281 2.536h-1.279v2.964h-4.006v-2.963h-1.278zM11.275 19.625l-1.27-0.981-1.27 0.982v2.858h2.54z"></path>
</symbol>
<symbol id="icon-onehouse_hww_preparing" viewBox="0 0 24 32">
<path fill="#8f7d7b" style="fill: var(--color6, #8f7d7b)" d="M15.201 13.195v-1.165h-2.179v-1.148l1.39-5.043h2.288v4.964h0.392v1.227h-0.393v1.165zM14.333 10.803h0.868v-3.703z"></path>
<path fill="#400d11" style="fill: var(--color7, #400d11)" d="M15.023 0.733c-4.788 0.003-8.668 3.886-8.668 8.674 0 3.569 2.156 6.635 5.237 7.966l0.056 0.022c0.996 0.432 2.156 0.684 3.375 0.684 4.791 0 8.674-3.883 8.674-8.674 0-3.572-2.159-6.639-5.243-7.969l-0.056-0.022c-0.991-0.431-2.145-0.681-3.357-0.681-0.006 0-0.012 0-0.019 0h0.001zM15.023 0c5.194 0 9.405 4.211 9.405 9.405s-4.211 9.405-9.405 9.405c-5.194 0-9.405-4.211-9.405-9.405v0c0-5.194 4.211-9.405 9.405-9.405v0z"></path>
<path fill="#fff" style="fill: var(--color2, #fff)" d="M9.405 13.191c5.194 0 9.405 4.211 9.405 9.405s-4.211 9.405-9.405 9.405c-5.194 0-9.405-4.211-9.405-9.405v0c0-5.194 4.211-9.405 9.405-9.405v0z"></path>
<path fill="#8f7d7b" style="fill: var(--color6, #8f7d7b)" d="M10.817 17.995c1.842 0 3.336 1.494 3.336 3.336s-1.494 3.336-3.336 3.336-3.336-1.494-3.336-3.336c0-0.921 0.373-1.755 0.977-2.359v0c0.601-0.604 1.432-0.977 2.35-0.977 0.004 0 0.007 0 0.011 0h-0.001zM10.817 23.935c1.438 0 2.603-1.166 2.603-2.603s-1.166-2.603-2.603-2.603v0 0c-1.438 0-2.603 1.166-2.603 2.603s1.166 2.603 2.603 2.603v0z"></path>
<path fill="#ea414b" style="fill: var(--color8, #ea414b)" d="M10.425 23.16l-1.218-1.591 0.582-0.446 0.639 0.834 1.606-2.078 0.58 0.448z"></path>
<path fill="#400d11" style="fill: var(--color7, #400d11)" d="M9.356 27.643l-0.138-1.389-0.706-0.286-1.065 0.904-2.129-2.098 0.883-1.079-0.297-0.702-1.4-0.117 0.047-3.089 1.389-0.115 0.297-0.702-0.885-1.079 2.131-2.097 1.065 0.904 0.706-0.286 0.138-1.389 2.99 0.023 0.116 1.392 0.701 0.297 1.080-0.885 2.097 2.13-0.902 1.066 0.286 0.705 1.392 0.138-0.049 2.887-1.382 0.137-0.285 0.705 0.904 1.066-2.097 2.131-1.080-0.885-0.701 0.297-0.116 1.392zM8.376 25.122l1.528 0.619 0.116 1.164 1.652-0.013 0.098-1.166 1.517-0.643 0.905 0.742 1.158-1.177-0.757-0.893 0.616-1.526 1.173-0.117 0.026-1.56-1.162-0.115-0.618-1.526 0.757-0.893-1.158-1.177-0.905 0.742-1.517-0.643-0.098-1.166-1.652-0.013-0.115 1.165-1.527 0.618-0.892-0.757-1.176 1.158 0.741 0.904-0.642 1.518-1.169 0.098-0.027 1.74 1.16 0.098 0.642 1.517-0.741 0.904 1.175 1.158z"></path>
</symbol>
<symbol id="icon-onehouse_hww_qualifying" viewBox="0 0 24 32">
<path fill="#8f7d7b" style="fill: var(--color6, #8f7d7b)" d="M13.206 13.191v-0.351c-0-0.012-0-0.027-0-0.042 0-0.338 0.062-0.661 0.176-0.96l-0.006 0.019c0.121-0.309 0.267-0.576 0.444-0.82l-0.007 0.011q0.267-0.374 0.564-0.733 0.288-0.351 0.549-0.72c0.165-0.231 0.308-0.495 0.417-0.776l0.008-0.025c0.105-0.277 0.165-0.596 0.165-0.93 0-0.014-0-0.029-0-0.043l0 0.002c0-0.008 0-0.018 0-0.028 0-0.15-0.028-0.293-0.080-0.424l0.003 0.008c-0.049-0.111-0.158-0.188-0.285-0.188-0.012 0-0.024 0.001-0.036 0.002l0.001-0q-0.366 0-0.366 0.656v0.897h-1.546c-0.003-0.064-0.006-0.136-0.011-0.217s-0.006-0.158-0.006-0.234c-0.001-0.030-0.001-0.065-0.001-0.1 0-0.443 0.061-0.872 0.176-1.279l-0.008 0.033c0.097-0.35 0.306-0.642 0.586-0.84l0.005-0.003c0.306-0.185 0.675-0.294 1.070-0.294 0.043 0 0.085 0.001 0.127 0.004l-0.006-0c0.035-0.002 0.075-0.004 0.116-0.004 0.505 0 0.965 0.197 1.306 0.517l-0.001-0.001c0.317 0.352 0.512 0.821 0.512 1.335 0 0.046-0.002 0.092-0.005 0.137l0-0.006c0 0.019 0.001 0.042 0.001 0.065 0 0.382-0.061 0.749-0.175 1.093l0.007-0.025c-0.116 0.338-0.266 0.63-0.45 0.897l0.008-0.012q-0.276 0.399-0.605 0.795-0.234 0.28-0.453 0.572c-0.137 0.182-0.265 0.387-0.375 0.603l-0.011 0.023h2.003v1.386z"></path>
<path fill="#400d11" style="fill: var(--color7, #400d11)" d="M15.023 0c5.193 0.003 9.401 4.214 9.401 9.407 0 3.871-2.338 7.196-5.679 8.64l-0.061 0.023c-1.069 0.458-2.313 0.724-3.618 0.724-5.195 0-9.407-4.212-9.407-9.407 0-3.857 2.322-7.172 5.644-8.624l0.061-0.024c1.075-0.467 2.327-0.739 3.643-0.739 0.006 0 0.012 0 0.019 0h-0.001zM15.023 18.076c4.788-0.003 8.668-3.886 8.668-8.674 0-3.569-2.156-6.635-5.237-7.966l-0.056-0.022c-0.989-0.425-2.14-0.673-3.349-0.673-4.791 0-8.674 3.884-8.674 8.674 0 3.562 2.147 6.622 5.217 7.958l0.056 0.022c0.991 0.431 2.145 0.681 3.358 0.681 0.006 0 0.012 0 0.018-0h-0.001z"></path>
<path fill="#fff" style="fill: var(--color2, #fff)" d="M9.405 13.191c5.194 0 9.405 4.211 9.405 9.405s-4.211 9.405-9.405 9.405c-5.194 0-9.405-4.211-9.405-9.405v0c0-5.194 4.211-9.405 9.405-9.405v0z"></path>
<path fill="#400d11" style="fill: var(--color7, #400d11)" d="M14.87 27.847h-10.362v-9.178l3.709-3.646h6.647l0.006 4.812h-0.733l-0.005-4.079h-5.615l-3.276 3.221v8.138h8.897v-1.435h0.733z"></path>
<path fill="#400d11" style="fill: var(--color7, #400d11)" d="M13.905 19.471c1.816 0 3.288 1.472 3.288 3.288s-1.472 3.288-3.288 3.288c-1.816 0-3.288-1.472-3.288-3.288 0-0.908 0.368-1.73 0.963-2.325v0c0.595-0.595 1.417-0.963 2.325-0.963 0 0 0 0 0 0h-0zM13.905 25.315c1.411-0.001 2.554-1.144 2.554-2.555s-1.144-2.555-2.555-2.555-2.555 1.144-2.555 2.555c0 0.705 0.286 1.344 0.748 1.806v0c0.462 0.462 1.101 0.748 1.807 0.748 0 0 0.001 0 0.001 0h-0z"></path>
<path fill="#ea414b" style="fill: var(--color8, #ea414b)" d="M13.519 24.567l-1.203-1.571 0.582-0.446 0.624 0.814 1.575-2.038 0.58 0.448z"></path>
<path fill="#400d11" style="fill: var(--color7, #400d11)" d="M8.734 19.189h-3.86v-0.733h3.127v-3.067h0.733z"></path>
<path fill="#847170" style="fill: var(--color9, #847170)" d="M6.212 20.066h4.298v0.733h-4.298z"></path>
<path fill="#847170" style="fill: var(--color9, #847170)" d="M6.212 21.614h3.707v0.733h-3.707z"></path>
<path fill="#847170" style="fill: var(--color9, #847170)" d="M6.212 23.233h3.707v0.733h-3.707z"></path>
<path fill="#847170" style="fill: var(--color9, #847170)" d="M6.212 24.853h1.264v0.733h-1.264z"></path>
<path fill="#847170" style="fill: var(--color9, #847170)" d="M9.545 17.527h3.472v0.733h-3.472z"></path>
</symbol>
<symbol id="icon-onehouse_hww_receivership" viewBox="0 0 24 32">
<path fill="#8f7d7b" style="fill: var(--color6, #8f7d7b)" d="M13.961 13.191v-5.661c-0.111 0.126-0.249 0.225-0.406 0.288l-0.007 0.003c-0.146 0.067-0.316 0.107-0.496 0.111l-0.001 0v-1.173c0.179-0.030 0.338-0.080 0.488-0.149l-0.012 0.005c0.182-0.081 0.338-0.183 0.476-0.306l-0.002 0.001c0.143-0.128 0.257-0.285 0.333-0.463l0.003-0.008h1.182v7.353z"></path>
<path fill="#400d11" style="fill: var(--color7, #400d11)" d="M15.023 0.733c-4.759 0.008-8.613 3.868-8.613 8.628 0 4.765 3.863 8.628 8.628 8.628s8.628-3.863 8.628-8.628c0-3.551-2.146-6.602-5.212-7.925l-0.056-0.022c-0.995-0.431-2.153-0.681-3.37-0.681-0.002 0-0.004 0-0.006 0h0zM15.023 0c5.194 0 9.405 4.211 9.405 9.405s-4.211 9.405-9.405 9.405c-5.194 0-9.405-4.211-9.405-9.405v0c0-5.194 4.211-9.405 9.405-9.405v0z"></path>
<path fill="#fff" style="fill: var(--color2, #fff)" d="M9.405 13.191c5.194 0 9.405 4.211 9.405 9.405s-4.211 9.405-9.405 9.405c-5.194 0-9.405-4.211-9.405-9.405v0c0-5.194 4.211-9.405 9.405-9.405v0z"></path>
<path fill="#400d11" style="fill: var(--color7, #400d11)" d="M7.58 15.389h4.25v1.699h-4.25z"></path>
<path fill="#847170" style="fill: var(--color9, #847170)" d="M9.494 19.699h3.335v0.733h-3.335z"></path>
<path fill="#847170" style="fill: var(--color9, #847170)" d="M9.494 22.435h3.335v0.733h-3.335z"></path>
<path fill="#847170" style="fill: var(--color9, #847170)" d="M9.494 25.172h1.637v0.733h-1.637z"></path>
<path fill="#ea414b" style="fill: var(--color8, #ea414b)" d="M7.222 21.132l-0.887-1.089 0.567-0.463 0.32 0.393 0.926-1.132 0.568 0.464z"></path>
<path fill="#ea414b" style="fill: var(--color8, #ea414b)" d="M7.222 23.924l-0.887-1.089 0.567-0.463 0.32 0.393 0.926-1.132 0.568 0.464z"></path>
<path fill="#ea414b" style="fill: var(--color8, #ea414b)" d="M7.208 26.701l-0.887-1.090 0.568-0.463 0.319 0.393 0.925-1.132 0.567 0.464z"></path>
<path fill="#400d11" style="fill: var(--color7, #400d11)" d="M4.508 15.873h10.392v12.876h-10.392zM14.168 16.606h-8.927v11.411h8.927z"></path>
</symbol>
<symbol id="icon-onehouse_hww_settlement" viewBox="0 0 24 32">
<path fill="#8f7d7b" style="fill: var(--color6, #8f7d7b)" d="M14.911 13.258c-0.037 0.002-0.080 0.003-0.124 0.003-0.392 0-0.762-0.098-1.086-0.27l0.012 0.006c-0.289-0.179-0.505-0.453-0.607-0.777l-0.003-0.010c-0.114-0.36-0.179-0.775-0.179-1.205 0-0.037 0.001-0.075 0.001-0.112l-0 0.005v-1.987c-0-0.024-0-0.053-0-0.082 0-0.446 0.024-0.887 0.070-1.321l-0.005 0.054c0.032-0.362 0.128-0.695 0.276-0.998l-0.007 0.017c0.135-0.262 0.345-0.469 0.602-0.598l0.008-0.004c0.287-0.131 0.623-0.207 0.977-0.207 0.037 0 0.073 0.001 0.109 0.002l-0.005-0c0.005-0 0.012-0 0.019-0 0.304 0 0.595 0.059 0.861 0.166l-0.015-0.005c0.263 0.102 0.482 0.267 0.647 0.477l0.002 0.003c0.154 0.208 0.247 0.47 0.247 0.753 0 0.016-0 0.033-0.001 0.049l0-0.002v0.793h-1.416v-0.15c0-0.129-0.007-0.257-0.020-0.382l0.001 0.016c-0.009-0.113-0.042-0.217-0.096-0.308l0.002 0.003c-0.050-0.074-0.134-0.122-0.229-0.122-0.009 0-0.018 0-0.027 0.001l0.001-0c-0.013-0.002-0.028-0.002-0.044-0.002-0.119 0-0.226 0.053-0.298 0.138l-0 0.001c-0.061 0.099-0.097 0.22-0.097 0.348 0 0.015 0.001 0.030 0.001 0.045l-0-0.002v1.474c0.073-0.134 0.18-0.241 0.309-0.313l0.004-0.002c0.138-0.075 0.303-0.119 0.477-0.119 0.011 0 0.022 0 0.034 0.001l-0.002-0c0.029-0.002 0.064-0.003 0.098-0.003 0.312 0 0.602 0.092 0.845 0.251l-0.006-0.004c0.226 0.18 0.388 0.431 0.452 0.72l0.002 0.008c0.080 0.333 0.126 0.715 0.126 1.108 0 0.036-0 0.072-0.001 0.108l0-0.005c0 0.023 0.001 0.049 0.001 0.076 0 0.431-0.066 0.847-0.188 1.237l0.008-0.029c-0.107 0.35-0.317 0.642-0.594 0.849l-0.004 0.003c-0.292 0.193-0.651 0.308-1.036 0.308-0.036 0-0.071-0.001-0.107-0.003l0.005 0zM14.857 11.905c0.011 0.002 0.024 0.003 0.038 0.003 0.134 0 0.245-0.095 0.271-0.221l0-0.002c0.032-0.153 0.051-0.33 0.051-0.511 0-0.018-0-0.036-0.001-0.054l0 0.003v-0.592q0-0.601-0.338-0.601-0.388 0-0.388 0.522v0.91q0 0.543 0.366 0.543z"></path>
<path fill="#400d11" style="fill: var(--color7, #400d11)" d="M15.023 0c5.193 0.003 9.401 4.214 9.401 9.407 0 3.871-2.338 7.196-5.679 8.64l-0.061 0.023c-1.069 0.458-2.313 0.724-3.618 0.724-5.195 0-9.407-4.212-9.407-9.407 0-3.857 2.322-7.172 5.644-8.624l0.061-0.024c1.075-0.467 2.327-0.739 3.643-0.739 0.006 0 0.012 0 0.019 0h-0.001zM15.023 18.076c4.788-0.003 8.668-3.886 8.668-8.674 0-3.569-2.156-6.635-5.237-7.966l-0.056-0.022c-0.989-0.425-2.14-0.673-3.349-0.673-4.791 0-8.674 3.884-8.674 8.674 0 3.562 2.147 6.622 5.217 7.958l0.056 0.022c0.991 0.431 2.145 0.681 3.358 0.681 0.006 0 0.012 0 0.018-0h-0.001z"></path>
<path fill="#fff" style="fill: var(--color2, #fff)" d="M9.405 13.191c5.194 0 9.405 4.211 9.405 9.405s-4.211 9.405-9.405 9.405c-5.194 0-9.405-4.211-9.405-9.405v0c0-5.194 4.211-9.405 9.405-9.405v0z"></path>
<path fill="#847170" style="fill: var(--color9, #847170)" d="M2.198 29.135h-0.733v-13.624h0.733z"></path>
<path fill="#847170" style="fill: var(--color9, #847170)" d="M15.365 16.914h-13.899v-0.733h13.899z"></path>
<path fill="#847170" style="fill: var(--color9, #847170)" d="M6.148 18.644h-0.733v-2.463h0.733z"></path>
<path fill="#400d11" style="fill: var(--color7, #400d11)" d="M13.729 25.027h-10.602v-0.733h10.602z"></path>
<path fill="#ea414b" style="fill: var(--color8, #ea414b)" d="M8.427 18.974l2.902 2.245h-1.181v2.457h-3.444v-2.457h-1.182zM9.417 20.665l-0.989-0.765-0.99 0.766v2.278h1.979z"></path>
<path fill="#400d11" style="fill: var(--color7, #400d11)" d="M3.127 17.911h10.602v8.715h-10.602zM12.996 18.644h-9.136v7.249h9.136z"></path>
</symbol>
<symbol id="icon-onehouse_hww_arrow" viewBox="0 0 163 32">
<path fill="none" stroke="#f35057" style="stroke: var(--color10, #f35057)" stroke-linejoin="miter" stroke-linecap="butt" stroke-miterlimit="4" stroke-width="8.4847" d="M0.017 16.023h157.333"></path>
<path fill="none" stroke="#f35057" style="stroke: var(--color10, #f35057)" stroke-linejoin="miter" stroke-linecap="butt" stroke-miterlimit="4" stroke-width="8.4847" d="M144.331 3.026l13.001 13.006-13.001 13.006"></path>
</symbol>
<symbol id="icon-onehouse_hp_calendar" viewBox="0 0 30 32">
<path fill="#fff" style="fill: var(--color2, #fff)" d="M0 1.524h30.476v30.476h-30.476z"></path>
<path fill="#540f11" style="fill: var(--color4, #540f11)" d="M1.27 2.794v27.936h27.936v-27.936h-27.936zM0 1.524h30.476v30.476h-30.476z"></path>
<path fill="#540f11" style="fill: var(--color4, #540f11)" d="M20.825 0h5.079v3.048h-5.079z"></path>
<path fill="#540f11" style="fill: var(--color4, #540f11)" d="M5.587 0h5.079v3.048h-5.079z"></path>
</symbol>
<symbol id="icon-onehouse_active" viewBox="0 0 32 32">
<path d="M31.999 16c0 8.837-7.163 16-16 16s-16-7.163-16-16c0-8.837 7.163-16 16-16v0c8.837 0 16 7.163 16 16v0zM14.149 24.473l11.871-11.871c0.187-0.187 0.302-0.445 0.302-0.73s-0.116-0.543-0.302-0.73l-1.461-1.461c-0.187-0.187-0.445-0.302-0.73-0.302s-0.543 0.116-0.73 0.302l-9.682 9.682-4.519-4.52c-0.187-0.187-0.445-0.302-0.73-0.302s-0.543 0.116-0.73 0.302l-1.461 1.46c-0.187 0.187-0.302 0.445-0.302 0.73s0.115 0.543 0.302 0.73l6.71 6.71c0.187 0.187 0.445 0.303 0.731 0.303s0.543-0.116 0.73-0.302v0z"></path>
</symbol>
<symbol id="icon-onehouse_blockquote_quote_icon" viewBox="0 0 42 32">
<path fill="#f85a5e" style="fill: var(--color3, #f85a5e)" d="M42.22 32.004h-17.1v-12.18c-0.001-0.102-0.002-0.222-0.002-0.343 0-2.542 0.373-4.997 1.067-7.313l-0.046 0.18c0.676-2.23 1.744-4.161 3.136-5.81l-0.020 0.024c1.385-1.605 3.028-2.942 4.872-3.957l0.091-0.046c1.889-1.029 4.079-1.831 6.393-2.29l0.148-0.024 1.197-0.243v7.469l-0.705 0.216c-1.587 0.463-2.967 1.19-4.161 2.14l0.024-0.019c-1.049 0.865-1.881 1.956-2.426 3.2l-0.022 0.055-0.011 0.025c-0.431 0.869-0.713 1.884-0.782 2.957l-0.001 0.023h8.348zM27.116 30.009h13.109v-11.943h-8.226l-0.090-0.898c-0.020-0.231-0.032-0.499-0.032-0.77 0-1.507 0.355-2.93 0.986-4.192l-0.025 0.054c1.269-2.927 3.663-5.028 7.12-6.249v-3.538c-1.816 0.453-3.409 1.083-4.89 1.891l0.107-0.053c-1.717 0.941-3.175 2.126-4.387 3.529l-0.017 0.020c-1.201 1.426-2.136 3.122-2.7 4.978l-0.026 0.1c-0.591 1.96-0.932 4.213-0.932 6.546 0 0.12 0.001 0.24 0.003 0.359l-0-0.018zM17.1 32.004h-17.1v-12.18c-0.001-0.097-0.002-0.212-0.002-0.327 0-2.52 0.362-4.956 1.038-7.258l-0.046 0.182c0.66-2.225 1.697-4.157 3.050-5.821l-0.024 0.030c1.366-1.64 3.007-2.997 4.861-4.014l0.087-0.044c1.93-1.047 4.168-1.855 6.534-2.306l0.146-0.023 1.19-0.235v7.458l-0.699 0.219c-1.605 0.478-3.001 1.208-4.221 2.153l0.029-0.022c-1.867 1.482-3.081 3.717-3.179 6.238l-0.001 0.016h8.336zM1.996 30.009h13.108v-11.943h-8.255l-0.063-0.93c-0.016-0.215-0.025-0.466-0.025-0.718 0-1.541 0.332-3.004 0.929-4.321l-0.027 0.066 0.003-0.007c0.712-1.559 1.739-2.863 3.007-3.878l0.021-0.016c1.184-0.932 2.558-1.693 4.045-2.215l0.1-0.030v-3.551c-1.864 0.448-3.502 1.086-5.024 1.913l0.107-0.053c-1.713 0.933-3.161 2.127-4.347 3.548l-0.019 0.024c-1.168 1.439-2.079 3.141-2.631 4.997l-0.026 0.103c-0.576 1.948-0.907 4.185-0.907 6.5 0 0.115 0.001 0.229 0.002 0.344l-0-0.017z"></path>
</symbol>
<symbol id="icon-onehouse_change_password" viewBox="0 0 24 32">
<path d="M24.183 10.576h-4.533v-3.027c-0.005-4.167-3.382-7.544-7.549-7.549h-0c-4.269 0.113-7.699 3.556-7.788 7.821l-0 0.008h3.095c0.002-2.586 2.098-4.682 4.684-4.684h0c2.514 0.014 4.547 2.056 4.547 4.572 0 0.039-0 0.079-0.002 0.118l0-0.006v2.747h-16.626c-0.023-0.074 0 1.613 0 21.407-0.007 0.072 24.184-0.045 24.174 0-0.002-19.793-0.056-21.433-0.002-21.407zM20.723 28.706h-17.437v-14.81h17.437z"></path>
<path d="M14.618 19.835c0 1.389-1.126 2.514-2.514 2.514s-2.514-1.126-2.514-2.514c0-1.389 1.126-2.514 2.514-2.514s2.514 1.126 2.514 2.514z"></path>
<path d="M13.23 21.741c0 1.681-0.504 3.044-1.126 3.044s-1.126-1.363-1.126-3.044c0-1.681 0.504-3.044 1.126-3.044s1.126 1.363 1.126 3.044z"></path>
</symbol>
<symbol id="icon-onehouse_expired-suspended" viewBox="0 0 36 32">
<path fill="#fff" style="fill: var(--color2, #fff)" d="M18.008-0.003l18.007 32.007h-36.016z"></path>
<path fill="#fff" style="fill: var(--color2, #fff)" d="M18.008 5.93l-13.033 23.163h26.061l-13.029-23.163zM18.008-0.003l18.007 32.007h-36.016z"></path>
<path fill="#b0363a" style="fill: var(--color11, #b0363a)" d="M19.463 20.85h-2.91v-9.214h2.91z"></path>
<path fill="#b0363a" style="fill: var(--color11, #b0363a)" d="M19.463 27.639h-2.91v-3.395h2.91z"></path>
</symbol>
<symbol id="icon-onehouse_log-out" viewBox="0 0 37 32">
<path d="M13.714 0v4.571h18.286v22.857h-18.286v4.571h22.857v-32zM9.143 9.143l-9.143 6.858 9.143 6.858v-4.573h18.286v-4.571h-18.286z"></path>
</symbol>
<symbol id="icon-onehouse_logo_horizontal" viewBox="0 0 53 32">
<path fill="#f85a5e" style="fill: var(--color3, #f85a5e)" d="M4.124 17.347c0.046-0.498 0.18-0.954 0.388-1.368l-0.010 0.022c0.193-0.371 0.481-0.67 0.832-0.871l0.010-0.005c0.435-0.199 0.943-0.315 1.478-0.315s1.043 0.116 1.501 0.324l-0.023-0.009c0.36 0.207 0.647 0.506 0.834 0.865l0.006 0.012c0.198 0.392 0.333 0.848 0.377 1.331l0.001 0.015c0.055 0.514 0.086 1.111 0.086 1.715s-0.031 1.201-0.092 1.789l0.006-0.074c-0.046 0.496-0.18 0.95-0.388 1.362l0.010-0.022c-0.189 0.368-0.477 0.662-0.829 0.854l-0.011 0.005c-0.436 0.189-0.944 0.298-1.478 0.298s-1.042-0.11-1.503-0.308l0.025 0.009c-0.363-0.197-0.652-0.491-0.837-0.848l-0.005-0.011c-0.198-0.39-0.332-0.845-0.377-1.325l-0.001-0.015c-0.055-0.514-0.086-1.111-0.086-1.715s0.031-1.201 0.092-1.789l-0.006 0.074zM5.728 20.463c0.016 0.341 0.074 0.662 0.168 0.967l-0.007-0.028c0.061 0.212 0.182 0.391 0.342 0.523l0.002 0.001c0.168 0.104 0.372 0.166 0.59 0.166s0.422-0.062 0.595-0.169l-0.005 0.003c0.162-0.134 0.282-0.313 0.342-0.517l0.002-0.007c0.087-0.277 0.144-0.598 0.16-0.93l0-0.009q0.040-0.577 0.040-1.403t-0.040-1.398c-0.017-0.341-0.075-0.662-0.168-0.968l0.007 0.028c-0.060-0.215-0.18-0.397-0.342-0.531l-0.002-0.001c-0.168-0.104-0.372-0.166-0.59-0.166s-0.422 0.062-0.595 0.169l0.005-0.003c-0.163 0.136-0.284 0.317-0.342 0.525l-0.002 0.007c-0.086 0.277-0.144 0.598-0.16 0.93l-0 0.009q-0.040 0.573-0.040 1.398t0.040 1.403z"></path>
<path fill="#f85a5e" style="fill: var(--color3, #f85a5e)" d="M14.274 20.572h0.023v-5.602h1.512v8.18h-1.879l-2.017-5.728h-0.023v5.728h-1.512v-8.18h1.902z"></path>
<path fill="#f85a5e" style="fill: var(--color3, #f85a5e)" d="M21.327 16.322h-2.921v1.925h2.749v1.351h-2.749v2.2h3.036v1.352h-4.687v-8.18h4.571z"></path>
<path fill="#f85a5e" style="fill: var(--color3, #f85a5e)" d="M26.482 14.97v3.128h1.925v-3.128h1.649v8.18h-1.649v-3.631h-1.925v3.631h-1.65v-8.18z"></path>
<path fill="#f85a5e" style="fill: var(--color3, #f85a5e)" d="M30.727 17.347c0.046-0.498 0.18-0.954 0.388-1.368l-0.010 0.022c0.193-0.371 0.481-0.67 0.832-0.871l0.010-0.005c0.435-0.199 0.943-0.315 1.478-0.315s1.043 0.116 1.501 0.324l-0.023-0.009c0.36 0.207 0.647 0.506 0.834 0.865l0.006 0.012c0.198 0.392 0.333 0.848 0.377 1.331l0.001 0.015c0.055 0.514 0.086 1.111 0.086 1.715s-0.031 1.201-0.092 1.789l0.006-0.074c-0.046 0.496-0.18 0.95-0.388 1.362l0.010-0.022c-0.189 0.368-0.477 0.662-0.829 0.854l-0.011 0.005c-0.436 0.189-0.944 0.298-1.478 0.298s-1.042-0.11-1.503-0.308l0.025 0.009c-0.363-0.197-0.652-0.491-0.837-0.848l-0.005-0.011c-0.198-0.39-0.332-0.845-0.377-1.325l-0.001-0.015c-0.055-0.514-0.086-1.111-0.086-1.715s0.031-1.201 0.092-1.789l-0.006 0.074zM32.331 20.463c0.016 0.341 0.073 0.662 0.167 0.967l-0.007-0.028c0.061 0.212 0.182 0.391 0.342 0.523l0.002 0.001c0.168 0.104 0.372 0.166 0.59 0.166s0.422-0.062 0.595-0.169l-0.005 0.003c0.162-0.134 0.282-0.313 0.342-0.517l0.002-0.007c0.087-0.277 0.144-0.598 0.16-0.93l0-0.009q0.040-0.577 0.040-1.403t-0.040-1.398c-0.017-0.341-0.075-0.662-0.168-0.968l0.007 0.028c-0.060-0.215-0.18-0.397-0.342-0.531l-0.002-0.001c-0.168-0.104-0.372-0.166-0.59-0.166s-0.422 0.062-0.595 0.169l0.005-0.003c-0.163 0.136-0.284 0.317-0.342 0.525l-0.002 0.007c-0.086 0.277-0.143 0.598-0.16 0.93l-0 0.009q-0.040 0.573-0.040 1.398t0.040 1.403z"></path>
<path fill="#f85a5e" style="fill: var(--color3, #f85a5e)" d="M38.373 20.675c-0 0.008-0 0.016-0 0.025 0 0.191 0.015 0.379 0.043 0.562l-0.003-0.021c0.024 0.167 0.076 0.318 0.152 0.453l-0.003-0.006c0.072 0.125 0.173 0.226 0.294 0.296l0.004 0.002c0.14 0.069 0.304 0.109 0.478 0.109s0.339-0.040 0.485-0.112l-0.007 0.003c0.122-0.073 0.221-0.174 0.29-0.294l0.002-0.004c0.073-0.129 0.125-0.279 0.148-0.439l0.001-0.007c0.025-0.163 0.040-0.351 0.040-0.542 0-0.009-0-0.018-0-0.026v0.001-5.705h1.651v5.705c0.001 0.032 0.002 0.069 0.002 0.106 0 0.425-0.081 0.832-0.227 1.205l0.008-0.022c-0.131 0.322-0.33 0.593-0.581 0.805l-0.003 0.002c-0.233 0.191-0.514 0.331-0.823 0.398l-0.013 0.002c-0.291 0.067-0.625 0.105-0.968 0.105-0.002 0-0.004 0-0.006 0h0c-0.004 0-0.009 0-0.013 0-0.34 0-0.672-0.033-0.993-0.097l0.032 0.005c-0.32-0.061-0.602-0.192-0.841-0.376l0.005 0.003c-0.257-0.207-0.458-0.476-0.58-0.783l-0.005-0.013c-0.139-0.362-0.22-0.781-0.22-1.218 0-0.043 0.001-0.086 0.002-0.128l-0 0.006v-5.706h1.65z"></path>
<path fill="#f85a5e" style="fill: var(--color3, #f85a5e)" d="M43.968 20.835c-0 0.007-0 0.014-0 0.022 0 0.177 0.017 0.349 0.048 0.516l-0.003-0.017c0.027 0.151 0.087 0.284 0.174 0.397l-0.002-0.002c0.089 0.11 0.202 0.196 0.332 0.25l0.006 0.002c0.145 0.059 0.314 0.092 0.49 0.092 0.015 0 0.030-0 0.044-0.001l-0.002 0c0.002 0 0.003 0 0.005 0 0.258 0 0.495-0.093 0.678-0.247l-0.002 0.001c0.189-0.17 0.307-0.415 0.307-0.688 0-0.026-0.001-0.052-0.003-0.078l0 0.003c0-0.008 0-0.018 0-0.028 0-0.16-0.027-0.314-0.078-0.456l0.003 0.010c-0.055-0.143-0.139-0.264-0.246-0.36l-0.001-0.001c-0.13-0.116-0.279-0.214-0.441-0.288l-0.011-0.004c-0.182-0.087-0.412-0.178-0.647-0.256l-0.046-0.013c-0.369-0.12-0.684-0.256-0.983-0.417l0.032 0.016c-0.259-0.138-0.48-0.308-0.669-0.509l-0.001-0.001c-0.173-0.188-0.309-0.413-0.391-0.663l-0.004-0.013c-0.080-0.251-0.126-0.539-0.126-0.839 0-0.017 0-0.035 0-0.052l-0 0.003c-0.005-0.054-0.007-0.117-0.007-0.18 0-0.638 0.261-1.215 0.682-1.63l0-0c0.461-0.374 1.054-0.6 1.701-0.6 0.055 0 0.109 0.002 0.163 0.005l-0.007-0c0.011-0 0.023-0 0.036-0 0.347 0 0.684 0.044 1.006 0.126l-0.028-0.006c0.307 0.077 0.576 0.212 0.806 0.393l-0.005-0.003c0.224 0.182 0.402 0.412 0.52 0.676l0.005 0.012c0.12 0.277 0.19 0.6 0.19 0.939 0 0.022-0 0.044-0.001 0.066l0-0.003v0.229h-1.581c0.002-0.029 0.003-0.063 0.003-0.098 0-0.294-0.078-0.571-0.213-0.809l0.004 0.008c-0.139-0.193-0.364-0.318-0.618-0.318-0.024 0-0.049 0.001-0.073 0.003l0.003-0c-0.011-0-0.023-0.001-0.036-0.001-0.152 0-0.297 0.030-0.43 0.084l0.008-0.003c-0.116 0.048-0.214 0.119-0.291 0.209l-0.001 0.001c-0.070 0.084-0.122 0.187-0.148 0.299l-0.001 0.005c-0.025 0.105-0.040 0.226-0.040 0.35 0 0.002 0 0.004 0 0.006v-0c-0 0.012-0.001 0.026-0.001 0.040 0 0.22 0.060 0.425 0.164 0.601l-0.003-0.005c0.175 0.219 0.408 0.384 0.677 0.472l0.010 0.003 1.272 0.55c0.293 0.125 0.546 0.268 0.779 0.438l-0.011-0.008c0.185 0.135 0.342 0.294 0.471 0.475l0.004 0.006c0.113 0.162 0.198 0.352 0.245 0.556l0.002 0.011c0.044 0.198 0.069 0.425 0.069 0.658 0 0.010-0 0.020-0 0.031v-0.002c0.006 0.060 0.009 0.129 0.009 0.199 0 0.67-0.292 1.271-0.757 1.684l-0.002 0.002c-0.528 0.373-1.184 0.596-1.893 0.596-0.069 0-0.138-0.002-0.207-0.006l0.009 0c-0.079 0.008-0.171 0.013-0.264 0.013-0.661 0-1.267-0.234-1.74-0.623l0.005 0.004c-0.376-0.418-0.606-0.974-0.606-1.584 0-0.055 0.002-0.11 0.006-0.165l-0 0.007v-0.332h1.649z"></path>
<path fill="#f85a5e" style="fill: var(--color3, #f85a5e)" d="M52.751 16.322h-2.921v1.925h2.749v1.351h-2.749v2.2h3.036v1.352h-4.685v-8.18h4.571z"></path>
<path fill="#f85a5e" style="fill: var(--color3, #f85a5e)" d="M14.046 32.001h-14.046v-31.194h14.046v12.718h-2.343v-10.376h-9.361v26.511h9.361v-5.078h2.342z"></path>
<path fill="#a1908e" style="fill: var(--color12, #a1908e)" d="M19.364 24.582l1.964 7.418h-1.557l-0.343-1.569h-1.976l-0.343 1.569h-1.559l1.964-7.418zM19.167 29.205l-0.717-3.335h-0.021l-0.717 3.335z"></path>
<path fill="#a1908e" style="fill: var(--color12, #a1908e)" d="M25.175 25.808h-1.621v6.19h-1.496v-6.19h-1.621v-1.226h4.738z"></path>
<path fill="#a1908e" style="fill: var(--color12, #a1908e)" d="M30.772 24.582l1.964 7.418h-1.559l-0.343-1.569h-1.971l-0.343 1.569h-1.559l1.964-7.418zM30.575 29.205l-0.717-3.335h-0.021l-0.717 3.335z"></path>
<path fill="#a1908e" style="fill: var(--color12, #a1908e)" d="M39.264 25.808h-1.621v6.19h-1.496v-6.19h-1.619v-1.226h4.738z"></path>
<path fill="#a1908e" style="fill: var(--color12, #a1908e)" d="M39.482 24.582h1.496v7.418h-1.496z"></path>
<path fill="#a1908e" style="fill: var(--color12, #a1908e)" d="M43.772 24.582l1.060 5.237h0.021l1.070-5.237h2.212v7.418h-1.372v-5.922h-0.020l-1.319 5.923h-1.164l-1.318-5.923h-0.021v5.923h-1.371v-7.419z"></path>
<path fill="#a1908e" style="fill: var(--color12, #a1908e)" d="M52.825 25.808h-2.649v1.745h2.493v1.226h-2.493v1.994h2.754v1.226h-4.249v-7.417h4.144z"></path>
</symbol>
<symbol id="icon-onehouse_my_dashboard_active" viewBox="0 0 32 32">
<path d="M0 0h7.619v7.619h-7.619z"></path>
<path d="M0 12.19h7.619v7.619h-7.619z"></path>
<path d="M0 24.381h7.619v7.619h-7.619z"></path>
<path d="M12.19 0h7.619v7.619h-7.619z"></path>
<path d="M12.19 12.19h7.619v7.619h-7.619z"></path>
<path d="M12.19 24.381h7.619v7.619h-7.619z"></path>
<path d="M24.381 0h7.619v7.619h-7.619z"></path>
<path d="M24.381 12.19h7.619v7.619h-7.619z"></path>
<path d="M24.381 24.381h7.619v7.619h-7.619z"></path>
</symbol>
<symbol id="icon-onehouse_not-submitted" viewBox="0 0 32 32">
<path d="M14.4 24h3.2v-9.6h-3.2zM16 0c-8.837 0-16 7.163-16 16s7.163 16 16 16c8.837 0 16-7.163 16-16v0c-0.003-8.835-7.165-15.997-16-16h-0zM16 28.8c-7.069 0-12.8-5.731-12.8-12.8s5.731-12.8 12.8-12.8c7.069 0 12.8 5.731 12.8 12.8v0c-0.010 7.065-5.735 12.79-12.799 12.8h-0.001zM14.4 11.2h3.2v-3.2h-3.2z"></path>
</symbol>
<symbol id="icon-onehouse_pagination_arrow" viewBox="0 0 20 32">
<path fill="#f85a5e" style="fill: var(--color3, #f85a5e)" d="M0.005 28.24l12.213-12.24-12.213-12.24 3.76-3.76 16 16-16 16z"></path>
</symbol>
<symbol id="icon-onehouse_pagination_doublearrow" viewBox="0 0 32 32">
<path fill="#f85a5e" style="fill: var(--color3, #f85a5e)" d="M12.553 28.246l12.219-12.246-12.219-12.246 3.762-3.762 16.007 16.007-16.007 16.007z"></path>
<path fill="#f85a5e" style="fill: var(--color3, #f85a5e)" d="M0 28.246l12.219-12.246-12.219-12.246 3.762-3.762 16.007 16.007-16.007 16.007z"></path>
</symbol>
<symbol id="icon-onehouse_pending_approval" viewBox="0 0 32 32">
<path fill="#000" style="fill: var(--color13, #000)" d="M30.588 16c0 8.057-6.531 14.588-14.588 14.588s-14.588-6.531-14.588-14.588c0-8.057 6.531-14.588 14.588-14.588v0c8.057 0 14.588 6.531 14.588 14.588v0z"></path>
<path fill="#000" style="fill: var(--color13, #000)" d="M16 0c0.003 0 0.006 0 0.009 0 8.837 0 16 7.163 16 16 0 6.591-3.985 12.25-9.676 14.702l-0.104 0.040c-1.816 0.777-3.93 1.228-6.149 1.228-8.839 0-16.004-7.165-16.004-16.004 0-6.559 3.945-12.196 9.592-14.668l0.103-0.040c1.83-0.796 3.961-1.258 6.201-1.258 0.010 0 0.020 0 0.030 0h-0.002zM16 29.176c7.277-0.001 13.176-5.9 13.176-13.176s-5.899-13.176-13.176-13.176-13.176 5.899-13.176 13.176c0 3.639 1.475 6.933 3.86 9.318v0c2.371 2.384 5.654 3.859 9.281 3.859 0.013 0 0.026-0 0.039-0h-0.002z"></path>
<path fill="#000" style="fill: var(--color13, #000)" d="M15.245 6.441v10.566l7.044 3.522z"></path>
<path fill="#f5e461" style="fill: var(--color14, #f5e461)" d="M22.288 21.941c-0.23-0-0.447-0.055-0.639-0.153l0.008 0.004-7.044-3.522c-0.466-0.237-0.78-0.713-0.78-1.263 0-0 0-0 0-0v0-10.565c0-0.78 0.632-1.412 1.412-1.412s1.412 0.632 1.412 1.412v9.694l6.264 3.131c0.467 0.237 0.781 0.713 0.781 1.263 0 0.78-0.632 1.412-1.412 1.412-0.001 0-0.001 0-0.002 0h0z"></path>
</symbol>
<symbol id="icon-onehouse_prop_history_prev_auction_year" viewBox="0 0 32 32">
<path fill="#540f11" style="fill: var(--color4, #540f11)" d="M16 0c8.833 0.007 15.991 7.17 15.991 16.004 0 6.586-3.978 12.242-9.662 14.698l-0.104 0.040c-1.784 0.746-3.857 1.18-6.032 1.18-8.839 0-16.004-7.165-16.004-16.004 0-6.516 3.895-12.123 9.483-14.62l0.102-0.041c1.829-0.795 3.96-1.258 6.198-1.258 0.009 0 0.019 0 0.028 0h-0.001zM16 30.255c7.87-0.006 14.248-6.387 14.248-14.259 0-5.867-3.544-10.907-8.608-13.095l-0.092-0.036c-1.613-0.687-3.49-1.087-5.46-1.087-7.875 0-14.259 6.384-14.259 14.259 0 5.837 3.508 10.856 8.531 13.061l0.091 0.036c1.629 0.708 3.527 1.12 5.52 1.12 0.010 0 0.020 0 0.029-0h-0.002z"></path>
<path fill="#f85a5e" style="fill: var(--color3, #f85a5e)" d="M21.389 20.361c-0.142-0-0.276-0.034-0.395-0.095l0.005 0.002-5.688-2.844c-0.288-0.146-0.482-0.441-0.482-0.781 0-0 0-0 0-0v0-8.532c0-0.482 0.391-0.873 0.873-0.873s0.873 0.391 0.873 0.873v0 7.992l5.206 2.602c0.289 0.146 0.483 0.441 0.483 0.781 0 0.482-0.391 0.873-0.873 0.873-0 0-0.001 0-0.001 0h0z"></path>
</symbol>
<symbol id="icon-onehouse_search_icon" viewBox="0 0 32 32">
<path fill="#540f11" style="fill: var(--color4, #540f11)" d="M22.881 20.132h-1.447l-0.512-0.497c1.784-2.071 2.871-4.788 2.871-7.758 0-6.581-5.335-11.916-11.916-11.916s-11.916 5.335-11.916 11.916c0 6.581 5.335 11.916 11.916 11.916 2.97 0 5.687-1.087 7.773-2.884l-0.016 0.013 0.497 0.512v1.447l9.153 9.134 2.728-2.728zM11.898 20.132c-0.001 0-0.002 0-0.002 0-4.549 0-8.237-3.688-8.237-8.237s3.688-8.237 8.237-8.237c4.549 0 8.237 3.688 8.237 8.237 0 0.001 0 0.002 0 0.003v-0c0 0.003 0 0.006 0 0.009 0 4.543-3.683 8.226-8.226 8.226-0.003 0-0.006 0-0.009 0h0.001z"></path>
</symbol>
<symbol id="icon-onehouse_snapshot_neighborhood" viewBox="0 0 40 32">
<path fill="#e66563" style="fill: var(--color15, #e66563)" d="M12.083-0.001l12.077 9.339h-4.18v12.677h-15.801v-12.677h-4.178zM18.895 7.54l-6.813-5.268-6.816 5.268h0.71v12.677h12.205v-12.677z"></path>
<path fill="#fff" style="fill: var(--color2, #fff)" d="M27.603 11.125l-9.448 7.304h2.444v12.677h14.003v-12.677h2.447z"></path>
<path fill="#540f11" style="fill: var(--color4, #540f11)" d="M27.604 9.988l12.077 9.339h-4.18v12.677h-15.801v-12.677h-4.178zM34.416 17.529l-6.813-5.268-6.816 5.268h0.71v12.677h12.205v-12.677z"></path>
</symbol>
<symbol id="icon-onehouse_snapshot_property-type" viewBox="0 0 31 32">
<path fill="#540f11" style="fill: var(--color4, #540f11)" d="M13.616 0.001c7.517 0.005 13.608 6.099 13.608 13.617 0 5.597-3.377 10.406-8.205 12.499l-0.088 0.034c-1.561 0.681-3.379 1.077-5.29 1.077-0.003 0-0.006 0-0.008 0h-0.018c-7.517-0.005-13.609-6.099-13.609-13.617 0-5.597 3.377-10.406 8.205-12.499l0.088-0.034c1.561-0.681 3.379-1.077 5.29-1.077 0.003 0 0.005 0 0.008 0h-0zM13.616 25.412h0.016c6.507-0.014 11.776-5.293 11.776-11.802 0-4.857-2.935-9.029-7.128-10.84l-0.077-0.029c-1.347-0.585-2.916-0.925-4.564-0.925-0.008 0-0.017 0-0.025 0h-0.014c-6.513 0.004-11.791 5.285-11.791 11.798 0 6.516 5.282 11.798 11.798 11.798 0.003 0 0.005 0 0.008 0h-0z"></path>
<path fill="#540f11" style="fill: var(--color4, #540f11)" d="M29.613 32.004l-7.829-7.821 1.283-1.284 7.829 7.821z"></path>
<path fill="#f85a5e" style="fill: var(--color3, #f85a5e)" d="M13.616 6.673l8.124 6.281h-3.166v7.34h-9.922v-7.34h-3.165zM16.759 11.399l-3.146-2.431-3.146 2.433v7.079h6.292z"></path>
</symbol>
<symbol id="icon-onehouse_snapshot_stories" viewBox="0 0 31 32">
<path fill="#540f11" style="fill: var(--color4, #540f11)" d="M15.718 0l15.712 12.15h-5.217v19.851h-21v-19.85h-5.213zM25.689 10.19l-9.972-7.711-9.977 7.711h1.432v19.851h17.079v-19.851z"></path>
<path fill="#f85a5e" style="fill: var(--color3, #f85a5e)" d="M17.15 27.051h-1.96v-13.070h1.96z"></path>
<path fill="#f85a5e" style="fill: var(--color3, #f85a5e)" d="M19.102 17.155l-3.196-3.196-3.196 3.196-1.386-1.386 4.582-4.582 4.582 4.582z"></path>
</symbol>
<symbol id="icon-onehouse_snapshot_structure" viewBox="0 0 34 32">
<path fill="#540f11" style="fill: var(--color4, #540f11)" d="M16.788 0.001l16.78 12.977h-5.389v19.024h-22.795v-19.023h-5.385zM28.353 11.197l-11.565-8.944-11.571 8.946h1.95v19.023h19.232v-19.024z"></path>
</symbol>
<symbol id="icon-onehouse_snapshot_year_built" viewBox="0 0 34 32">
<path fill="#540f11" style="fill: var(--color4, #540f11)" d="M1.901 7.921v22.178h30.416v-22.178h-30.416zM0 6.020h34.218v25.98h-34.218z"></path>
<path fill="#540f11" style="fill: var(--color4, #540f11)" d="M8.871 10.068h-1.901v-10.068h1.901z"></path>
<path fill="#540f11" style="fill: var(--color4, #540f11)" d="M26.931 10.068h-1.901v-10.068h1.901z"></path>
<path fill="#f85a5e" style="fill: var(--color3, #f85a5e)" d="M5.069 16.792h5.069v5.069h-5.069z"></path>
<path fill="#540f11" style="fill: var(--color4, #540f11)" d="M33.901 14.257h-33.584v-1.901h33.584z"></path>
</symbol>
<symbol id="icon-onehouse_status_default" viewBox="0 0 32 32">
<path d="M14.4 24h3.2v-9.6h-3.2zM16 0c-8.837 0-16 7.163-16 16s7.163 16 16 16c8.837 0 16-7.163 16-16v0c0-8.837-7.163-16-16-16v0zM16 28.8c-7.069 0-12.8-5.731-12.8-12.8s5.731-12.8 12.8-12.8c7.069 0 12.8 5.731 12.8 12.8v0c-0.009 7.065-5.735 12.791-12.799 12.8h-0.001zM14.4 11.2h3.2v-3.2h-3.2z"></path>
</symbol>
</defs>
</svg>
