<svg xmlns="http://www.w3.org/2000/svg" width="26.192" height="26.186" viewBox="0 0 26.192 26.186"><path d="M13.099 6.375a6.714 6.714 0 1 0 6.714 6.714 6.7 6.7 0 0 0-6.714-6.714Zm0 11.079a4.365 4.365 0 1 1 4.365-4.365 4.373 4.373 0 0 1-4.365 4.369Zm8.555-11.349a1.566 1.566 0 1 1-1.566-1.566 1.562 1.562 0 0 1 1.566 1.566Zm4.447 1.589a7.75 7.75 0 0 0-2.115-5.487A7.8 7.8 0 0 0 18.499.092c-2.162-.123-8.642-.123-10.8 0a7.789 7.789 0 0 0-5.487 2.109 7.775 7.775 0 0 0-2.12 5.487c-.123 2.162-.123 8.642 0 10.8a7.75 7.75 0 0 0 2.115 5.487 7.811 7.811 0 0 0 5.487 2.115c2.162.123 8.642.123 10.8 0a7.75 7.75 0 0 0 5.491-2.115 7.8 7.8 0 0 0 2.115-5.487c.123-2.162.123-8.636 0-10.8Zm-2.794 13.118a4.419 4.419 0 0 1-2.489 2.489c-1.724.684-5.814.526-7.719.526s-6 .152-7.719-.526a4.419 4.419 0 0 1-2.489-2.489c-.684-1.724-.526-5.814-.526-7.719s-.152-6 .526-7.719A4.419 4.419 0 0 1 5.38 2.885c1.724-.684 5.814-.526 7.719-.526s6-.152 7.719.526a4.419 4.419 0 0 1 2.489 2.49c.684 1.724.526 5.814.526 7.719s.158 6-.526 7.718Z"/></svg>