<!-- Generated by IcoMoon.io -->
<svg version="1.1" xmlns="http://www.w3.org/2000/svg" width="24" height="32" viewBox="0 0 24 32">
<title>onehouse_hww_qualifying</title>
<path fill="#8f7d7b" d="M13.206 13.191v-0.351c-0-0.012-0-0.027-0-0.042 0-0.338 0.062-0.661 0.176-0.96l-0.006 0.019c0.121-0.309 0.267-0.576 0.444-0.82l-0.007 0.011q0.267-0.374 0.564-0.733 0.288-0.351 0.549-0.72c0.165-0.231 0.308-0.495 0.417-0.776l0.008-0.025c0.105-0.277 0.165-0.596 0.165-0.93 0-0.014-0-0.029-0-0.043l0 0.002c0-0.008 0-0.018 0-0.028 0-0.15-0.028-0.293-0.080-0.424l0.003 0.008c-0.049-0.111-0.158-0.188-0.285-0.188-0.012 0-0.024 0.001-0.036 0.002l0.001-0q-0.366 0-0.366 0.656v0.897h-1.546c-0.003-0.064-0.006-0.136-0.011-0.217s-0.006-0.158-0.006-0.234c-0.001-0.030-0.001-0.065-0.001-0.1 0-0.443 0.061-0.872 0.176-1.279l-0.008 0.033c0.097-0.35 0.306-0.642 0.586-0.84l0.005-0.003c0.306-0.185 0.675-0.294 1.070-0.294 0.043 0 0.085 0.001 0.127 0.004l-0.006-0c0.035-0.002 0.075-0.004 0.116-0.004 0.505 0 0.965 0.197 1.306 0.517l-0.001-0.001c0.317 0.352 0.512 0.821 0.512 1.335 0 0.046-0.002 0.092-0.005 0.137l0-0.006c0 0.019 0.001 0.042 0.001 0.065 0 0.382-0.061 0.749-0.175 1.093l0.007-0.025c-0.116 0.338-0.266 0.63-0.45 0.897l0.008-0.012q-0.276 0.399-0.605 0.795-0.234 0.28-0.453 0.572c-0.137 0.182-0.265 0.387-0.375 0.603l-0.011 0.023h2.003v1.386z"></path>
<path fill="#400d11" d="M15.023 0c5.193 0.003 9.401 4.214 9.401 9.407 0 3.871-2.338 7.196-5.679 8.64l-0.061 0.023c-1.069 0.458-2.313 0.724-3.618 0.724-5.195 0-9.407-4.212-9.407-9.407 0-3.857 2.322-7.172 5.644-8.624l0.061-0.024c1.075-0.467 2.327-0.739 3.643-0.739 0.006 0 0.012 0 0.019 0h-0.001zM15.023 18.076c4.788-0.003 8.668-3.886 8.668-8.674 0-3.569-2.156-6.635-5.237-7.966l-0.056-0.022c-0.989-0.425-2.14-0.673-3.349-0.673-4.791 0-8.674 3.884-8.674 8.674 0 3.562 2.147 6.622 5.217 7.958l0.056 0.022c0.991 0.431 2.145 0.681 3.358 0.681 0.006 0 0.012 0 0.018-0h-0.001z"></path>
<path fill="#fff" d="M9.405 13.191c5.194 0 9.405 4.211 9.405 9.405s-4.211 9.405-9.405 9.405c-5.194 0-9.405-4.211-9.405-9.405v0c0-5.194 4.211-9.405 9.405-9.405v0z"></path>
<path fill="#400d11" d="M14.87 27.847h-10.362v-9.178l3.709-3.646h6.647l0.006 4.812h-0.733l-0.005-4.079h-5.615l-3.276 3.221v8.138h8.897v-1.435h0.733z"></path>
<path fill="#400d11" d="M13.905 19.471c1.816 0 3.288 1.472 3.288 3.288s-1.472 3.288-3.288 3.288c-1.816 0-3.288-1.472-3.288-3.288 0-0.908 0.368-1.73 0.963-2.325v0c0.595-0.595 1.417-0.963 2.325-0.963 0 0 0 0 0 0h-0zM13.905 25.315c1.411-0.001 2.554-1.144 2.554-2.555s-1.144-2.555-2.555-2.555-2.555 1.144-2.555 2.555c0 0.705 0.286 1.344 0.748 1.806v0c0.462 0.462 1.101 0.748 1.807 0.748 0 0 0.001 0 0.001 0h-0z"></path>
<path fill="#ea414b" d="M13.519 24.567l-1.203-1.571 0.582-0.446 0.624 0.814 1.575-2.038 0.58 0.448z"></path>
<path fill="#400d11" d="M8.734 19.189h-3.86v-0.733h3.127v-3.067h0.733z"></path>
<path fill="#847170" d="M6.212 20.066h4.298v0.733h-4.298z"></path>
<path fill="#847170" d="M6.212 21.614h3.707v0.733h-3.707z"></path>
<path fill="#847170" d="M6.212 23.233h3.707v0.733h-3.707z"></path>
<path fill="#847170" d="M6.212 24.853h1.264v0.733h-1.264z"></path>
<path fill="#847170" d="M9.545 17.527h3.472v0.733h-3.472z"></path>
</svg>
