<svg xmlns="http://www.w3.org/2000/svg" width="51.06" height="52.897"><path fill="#540f11" d="M22.502.001a22.506 22.506 0 0 1 8.784 43.221 22.361 22.361 0 0 1-8.756 1.78h-.03a22.506 22.506 0 0 1-8.785-43.221 22.362 22.362 0 0 1 8.756-1.78Zm0 42h.026A19.506 19.506 0 0 0 30.085 4.53a19.374 19.374 0 0 0-7.583-1.529h-.026a19.5 19.5 0 1 0 .024 39Z" data-name="Path 13967"/><path fill="#540f11" d="m48.941 52.897-12.94-12.926 2.12-2.122 12.94 12.926Z" data-name="Line 61"/><path fill="#f85a5e" d="m22.502 11.03 13.427 10.381h-5.233v12.132h-16.4V21.411H9.065Zm5.195 7.81-5.2-4.018-5.2 4.022v11.7h10.4Z" data-name="Path 13968"/></svg>