<svg xmlns="http://www.w3.org/2000/svg" width="100.894" height="61"><path fill="#f85a5e" d="M7.861 33.068a7.251 7.251 0 0 1 .721-2.566 4.04 4.04 0 0 1 1.605-1.671 6.912 6.912 0 0 1 5.634 0 4.036 4.036 0 0 1 1.6 1.671 7.229 7.229 0 0 1 .721 2.566 32.651 32.651 0 0 1 0 6.54 7.207 7.207 0 0 1-.721 2.555 3.826 3.826 0 0 1-1.6 1.638 7.265 7.265 0 0 1-5.634 0 3.829 3.829 0 0 1-1.605-1.638 7.228 7.228 0 0 1-.721-2.555 32.761 32.761 0 0 1 0-6.54m3.058 5.94a7.409 7.409 0 0 0 .306 1.79 1.994 1.994 0 0 0 .655 1 2.157 2.157 0 0 0 2.25 0 2 2 0 0 0 .655-1 7.437 7.437 0 0 0 .306-1.79q.076-1.1.076-2.675t-.076-2.664a7.581 7.581 0 0 0-.306-1.791 2 2 0 0 0-.655-1.015 2.155 2.155 0 0 0-2.25 0 2 2 0 0 0-.655 1.015 7.552 7.552 0 0 0-.306 1.791q-.077 1.092-.076 2.664t.076 2.675" data-name="Path 128"/><path fill="#f85a5e" d="M27.208 39.216h.044V28.537h2.882v15.592h-3.581L22.709 33.21h-.043v10.919h-2.882V28.537h3.625Z" data-name="Path 129"/><path fill="#f85a5e" d="M40.654 31.114h-5.568v3.669h5.241v2.576h-5.241v4.193h5.787v2.577h-8.934V28.537h8.713Z" data-name="Path 130"/><path fill="#f85a5e" d="M50.48 28.537v5.962h3.669v-5.962h3.144v15.592h-3.144v-6.922H50.48v6.922h-3.146V28.537Z" data-name="Path 131"/><path fill="#f85a5e" d="M58.571 33.068a7.253 7.253 0 0 1 .721-2.566 4.039 4.039 0 0 1 1.605-1.671 6.913 6.913 0 0 1 5.634 0 4.036 4.036 0 0 1 1.6 1.671 7.225 7.225 0 0 1 .721 2.566 32.645 32.645 0 0 1 0 6.54 7.2 7.2 0 0 1-.721 2.555 3.826 3.826 0 0 1-1.6 1.638 7.265 7.265 0 0 1-5.634 0 3.829 3.829 0 0 1-1.605-1.638 7.23 7.23 0 0 1-.721-2.555 32.742 32.742 0 0 1 0-6.54m3.057 5.94a7.417 7.417 0 0 0 .305 1.79 2 2 0 0 0 .655 1 2.157 2.157 0 0 0 2.25 0 2 2 0 0 0 .655-1 7.441 7.441 0 0 0 .306-1.79q.076-1.1.076-2.675t-.076-2.664a7.584 7.584 0 0 0-.306-1.791 2 2 0 0 0-.655-1.015 2.154 2.154 0 0 0-2.25 0 2 2 0 0 0-.655 1.015 7.56 7.56 0 0 0-.305 1.791q-.077 1.092-.076 2.664t.076 2.675" data-name="Path 132"/><path fill="#f85a5e" d="M73.146 39.412a7.041 7.041 0 0 0 .076 1.081 2.448 2.448 0 0 0 .284.851 1.518 1.518 0 0 0 .568.568 2.109 2.109 0 0 0 1.824 0 1.549 1.549 0 0 0 .557-.568 2.462 2.462 0 0 0 .284-.851 7.049 7.049 0 0 0 .076-1.081V28.537h3.147v10.875a6.287 6.287 0 0 1-.415 2.457 3.922 3.922 0 0 1-1.113 1.539 3.771 3.771 0 0 1-1.594.764 8.608 8.608 0 0 1-1.856.2 9.661 9.661 0 0 1-1.856-.175 3.767 3.767 0 0 1-1.594-.71 3.634 3.634 0 0 1-1.114-1.518 6.641 6.641 0 0 1-.415-2.555V28.537h3.145Z" data-name="Path 133"/><path fill="#f85a5e" d="M83.812 39.717a5.237 5.237 0 0 0 .087.994 1.736 1.736 0 0 0 .328.753 1.613 1.613 0 0 0 .644.481 2.565 2.565 0 0 0 1.015.175 2.009 2.009 0 0 0 1.3-.469 1.761 1.761 0 0 0 .579-1.453 2.616 2.616 0 0 0-.142-.906 1.788 1.788 0 0 0-.47-.688 3.338 3.338 0 0 0-.862-.557 12.435 12.435 0 0 0-1.321-.513 11.339 11.339 0 0 1-1.813-.765 4.869 4.869 0 0 1-1.277-.972 3.483 3.483 0 0 1-.753-1.288 5.425 5.425 0 0 1-.24-1.693 4.36 4.36 0 0 1 1.288-3.45 5.165 5.165 0 0 1 3.538-1.136 7.693 7.693 0 0 1 1.933.229 4.052 4.052 0 0 1 1.528.742 3.479 3.479 0 0 1 1 1.31 4.616 4.616 0 0 1 .36 1.911v.436h-3.013a3.126 3.126 0 0 0-.393-1.714 1.447 1.447 0 0 0-1.31-.6 2.18 2.18 0 0 0-.873.153 1.471 1.471 0 0 0-.557.4 1.388 1.388 0 0 0-.284.579 2.964 2.964 0 0 0-.076.677 2.253 2.253 0 0 0 .306 1.212 2.737 2.737 0 0 0 1.31.906l2.424 1.048a7.455 7.455 0 0 1 1.463.819 3.983 3.983 0 0 1 .906.917 3.057 3.057 0 0 1 .47 1.081 6.061 6.061 0 0 1 .131 1.31 4.292 4.292 0 0 1-1.43 3.593 6.3 6.3 0 0 1-3.985 1.125 5.222 5.222 0 0 1-3.811-1.157 4.519 4.519 0 0 1-1.146-3.319v-.633h3.144Z" data-name="Path 134"/><path fill="#f85a5e" d="M100.554 31.114h-5.568v3.669h5.241v2.576h-5.241v4.193h5.787v2.577h-8.931V28.537h8.713Z" data-name="Path 135"/><path fill="#f85a5e" d="M26.775 61H0V1.539h26.775v24.243h-4.466V6.004H4.466v50.535h17.843v-9.68h4.465Z" data-name="Path 136"/><path fill="#a1908e" d="M36.911 46.859 40.654 61h-2.968l-.654-2.991h-3.766L32.612 61h-2.971l3.743-14.141Zm-.376 8.813-1.367-6.357h-.04l-1.366 6.357Z" data-name="Path 137"/><path fill="#a1908e" d="M47.988 49.195h-3.09v11.8h-2.852v-11.8h-3.09v-2.337h9.032Z" data-name="Path 138"/><path fill="#a1908e" d="M58.658 46.859 62.401 61H59.43l-.654-2.991h-3.758L54.364 61h-2.971l3.743-14.141Zm-.376 8.813-1.367-6.357h-.04l-1.366 6.357Z" data-name="Path 139"/><path fill="#a1908e" d="M74.844 49.195h-3.09v11.8h-2.852v-11.8h-3.086v-2.337h9.032Z" data-name="Path 140"/><path fill="#a1908e" d="M75.26 46.859h2.852V61H75.26z" data-name="Rectangle 74"/><path fill="#a1908e" d="m83.437 46.859 2.02 9.982h.04l2.04-9.982h4.217V61h-2.615V49.711H89.1l-2.515 11.29h-2.218l-2.513-11.29h-.04v11.29H79.2V46.859Z" data-name="Path 141"/><path fill="#a1908e" d="M100.695 49.195h-5.05v3.327h4.753v2.337h-4.753v3.8h5.249v2.337h-8.1V46.858h7.9Z" data-name="Path 142"/><path fill="none" d="M0 0h100.894v59.461H0z" data-name="Rectangle 75"/></svg>