<!-- Generated by IcoMoon.io -->
<svg version="1.1" xmlns="http://www.w3.org/2000/svg" width="24" height="32" viewBox="0 0 24 32">
<title>onehouse_hww_preparing</title>
<path fill="#8f7d7b" d="M15.201 13.195v-1.165h-2.179v-1.148l1.39-5.043h2.288v4.964h0.392v1.227h-0.393v1.165zM14.333 10.803h0.868v-3.703z"></path>
<path fill="#400d11" d="M15.023 0.733c-4.788 0.003-8.668 3.886-8.668 8.674 0 3.569 2.156 6.635 5.237 7.966l0.056 0.022c0.996 0.432 2.156 0.684 3.375 0.684 4.791 0 8.674-3.883 8.674-8.674 0-3.572-2.159-6.639-5.243-7.969l-0.056-0.022c-0.991-0.431-2.145-0.681-3.357-0.681-0.006 0-0.012 0-0.019 0h0.001zM15.023 0c5.194 0 9.405 4.211 9.405 9.405s-4.211 9.405-9.405 9.405c-5.194 0-9.405-4.211-9.405-9.405v0c0-5.194 4.211-9.405 9.405-9.405v0z"></path>
<path fill="#fff" d="M9.405 13.191c5.194 0 9.405 4.211 9.405 9.405s-4.211 9.405-9.405 9.405c-5.194 0-9.405-4.211-9.405-9.405v0c0-5.194 4.211-9.405 9.405-9.405v0z"></path>
<path fill="#8f7d7b" d="M10.817 17.995c1.842 0 3.336 1.494 3.336 3.336s-1.494 3.336-3.336 3.336-3.336-1.494-3.336-3.336c0-0.921 0.373-1.755 0.977-2.359v0c0.601-0.604 1.432-0.977 2.35-0.977 0.004 0 0.007 0 0.011 0h-0.001zM10.817 23.935c1.438 0 2.603-1.166 2.603-2.603s-1.166-2.603-2.603-2.603v0 0c-1.438 0-2.603 1.166-2.603 2.603s1.166 2.603 2.603 2.603v0z"></path>
<path fill="#ea414b" d="M10.425 23.16l-1.218-1.591 0.582-0.446 0.639 0.834 1.606-2.078 0.58 0.448z"></path>
<path fill="#400d11" d="M9.356 27.643l-0.138-1.389-0.706-0.286-1.065 0.904-2.129-2.098 0.883-1.079-0.297-0.702-1.4-0.117 0.047-3.089 1.389-0.115 0.297-0.702-0.885-1.079 2.131-2.097 1.065 0.904 0.706-0.286 0.138-1.389 2.99 0.023 0.116 1.392 0.701 0.297 1.080-0.885 2.097 2.13-0.902 1.066 0.286 0.705 1.392 0.138-0.049 2.887-1.382 0.137-0.285 0.705 0.904 1.066-2.097 2.131-1.080-0.885-0.701 0.297-0.116 1.392zM8.376 25.122l1.528 0.619 0.116 1.164 1.652-0.013 0.098-1.166 1.517-0.643 0.905 0.742 1.158-1.177-0.757-0.893 0.616-1.526 1.173-0.117 0.026-1.56-1.162-0.115-0.618-1.526 0.757-0.893-1.158-1.177-0.905 0.742-1.517-0.643-0.098-1.166-1.652-0.013-0.115 1.165-1.527 0.618-0.892-0.757-1.176 1.158 0.741 0.904-0.642 1.518-1.169 0.098-0.027 1.74 1.16 0.098 0.642 1.517-0.741 0.904 1.175 1.158z"></path>
</svg>
