<!-- Generated by IcoMoon.io -->
<svg version="1.1" xmlns="http://www.w3.org/2000/svg" width="24" height="32" viewBox="0 0 24 32">
<title>onehouse_hww_identifying</title>
<path fill="#8f7d7b" d="M14.967 13.274q-0.973 0-1.415-0.513t-0.442-1.549v-0.768h1.507v0.772c-0 0.011-0 0.023-0 0.035 0 0.164 0.027 0.322 0.077 0.47l-0.003-0.010c0.060 0.121 0.183 0.202 0.325 0.202 0.148 0 0.276-0.089 0.332-0.217l0.001-0.002c0.047-0.183 0.073-0.393 0.073-0.609 0-0.038-0.001-0.075-0.002-0.112l0 0.005v-0.184c0-0.011 0-0.023 0-0.035 0-0.227-0.047-0.443-0.132-0.639l0.004 0.010c-0.080-0.171-0.25-0.287-0.447-0.287-0.018 0-0.036 0.001-0.054 0.003l0.002-0c-0.031 0-0.058 0-0.081 0.002-0.022 0.001-0.043 0.003-0.064 0.007l0.003-0v-1.319c0.018 0.001 0.038 0.002 0.059 0.002 0.196 0 0.377-0.064 0.523-0.173l-0.002 0.002c0.126-0.127 0.204-0.302 0.204-0.495 0-0.025-0.001-0.049-0.004-0.073l0 0.003q0-0.622-0.359-0.622c-0.009-0.001-0.020-0.002-0.031-0.002-0.126 0-0.234 0.074-0.283 0.181l-0.001 0.002c-0.052 0.125-0.082 0.271-0.082 0.423 0 0.013 0 0.027 0.001 0.040l-0-0.002v0.221h-1.52c-0.003-0.033-0.005-0.073-0.006-0.122s-0.002-0.093-0.002-0.138q0-1.010 0.471-1.482t1.445-0.472q1.878 0 1.878 1.954c0.001 0.022 0.001 0.048 0.001 0.074 0 0.295-0.054 0.577-0.153 0.837l0.005-0.016c-0.101 0.236-0.296 0.416-0.536 0.493l-0.006 0.002c0.191 0.085 0.348 0.216 0.462 0.38l0.002 0.004c0.102 0.166 0.172 0.363 0.195 0.574l0.001 0.006c0.029 0.232 0.046 0.501 0.046 0.774 0 0.023-0 0.046-0 0.068l0-0.003q0 1.102-0.461 1.699t-1.53 0.597z"></path>
<path fill="#400d11" d="M15.023 0.733c-4.788 0.003-8.668 3.886-8.668 8.674 0 3.569 2.156 6.635 5.237 7.966l0.056 0.022c0.996 0.432 2.156 0.684 3.375 0.684 4.791 0 8.674-3.883 8.674-8.674 0-3.572-2.159-6.639-5.243-7.969l-0.056-0.022c-0.991-0.431-2.145-0.681-3.357-0.681-0.006 0-0.012 0-0.019 0h0.001zM15.023 0c5.194 0 9.405 4.211 9.405 9.405s-4.211 9.405-9.405 9.405c-5.194 0-9.405-4.211-9.405-9.405v0c0-5.194 4.211-9.405 9.405-9.405v0z"></path>
<path fill="#fff" d="M9.405 13.191c5.194 0 9.405 4.211 9.405 9.405s-4.211 9.405-9.405 9.405c-5.194 0-9.405-4.211-9.405-9.405v0c0-5.194 4.211-9.405 9.405-9.405v0z"></path>
<path fill="#400d11" d="M10.005 15.023c0.001 0 0.002 0 0.003 0 3.035 0 5.496 2.461 5.496 5.496 0 3.034-2.459 5.494-5.493 5.496h-0.007c-0.001 0-0.002 0-0.004 0-3.035 0-5.496-2.461-5.496-5.496 0-3.034 2.459-5.494 5.492-5.496h0zM10.005 25.282h0.006c2.629-0.002 4.76-2.134 4.76-4.763 0-2.631-2.133-4.763-4.763-4.763-0.001 0-0.002 0-0.003 0h-0.006c-2.629 0.002-4.76 2.134-4.76 4.763 0 2.631 2.133 4.763 4.763 4.763 0.001 0 0.002 0 0.003 0h-0z"></path>
<path fill="#400d11" d="M16.463 27.944l-3.161-3.157 0.518-0.518 3.161 3.157z"></path>
<path fill="#ea414b" d="M10.005 17.717l3.281 2.536h-1.279v2.964h-4.006v-2.963h-1.278zM11.275 19.625l-1.27-0.981-1.27 0.982v2.858h2.54z"></path>
</svg>
