<svg xmlns="http://www.w3.org/2000/svg" width="105.805" height="80.199"><path fill="#f85a5e" d="M105.805 80.2H62.953V49.676a63.737 63.737 0 0 1 2.552-18.734 40.512 40.512 0 0 1 7.81-14.5A44.127 44.127 0 0 1 85.753 6.41a58.244 58.244 0 0 1 16.391-5.8l3-.608v18.717l-1.766.542a30.054 30.054 0 0 0-10.367 5.317 21.537 21.537 0 0 0-6.134 8.159l-.028.063a19.961 19.961 0 0 0-1.962 7.469h20.921Zm-37.852-5h32.852V45.27H80.191l-.225-2.251a23.51 23.51 0 0 1 2.331-12.3c3.18-7.336 9.179-12.6 17.844-15.66V6.192a51.131 51.131 0 0 0-11.988 4.605 39.147 39.147 0 0 0-11.037 8.894 35.549 35.549 0 0 0-6.833 12.727 58.781 58.781 0 0 0-2.329 17.258Zm-25.1 5H0V49.676a64.478 64.478 0 0 1 2.481-18.552 41.584 41.584 0 0 1 7.584-14.512 42.017 42.017 0 0 1 12.4-10.169A58.39 58.39 0 0 1 39.204.606l2.983-.588v18.689l-1.752.55a31.964 31.964 0 0 0-10.505 5.341 20.973 20.973 0 0 0-7.969 15.672h20.89Zm-37.852-5h32.85V45.27H17.165l-.159-2.33a26.269 26.269 0 0 1 2.2-12.464l.008-.018a26.168 26.168 0 0 1 7.589-9.758 35.644 35.644 0 0 1 10.387-5.626v-8.9a51.081 51.081 0 0 0-12.321 4.66 37.042 37.042 0 0 0-10.942 8.95 36.618 36.618 0 0 0-6.66 12.781A59.518 59.518 0 0 0 5 49.673Z"/></svg>