<svg xmlns="http://www.w3.org/2000/svg" width="52.995" height="64.284"><text fill="#f85a5e" data-name="$" font-family="NimbusSan-Reg, Nimbus Sans" font-size="31" transform="translate(26.795 50.865)"><tspan x="-8" y="0">$</tspan></text><path fill="#540f11" d="M26.445 64.284a26.554 26.554 0 0 1-18-6.994 26.231 26.231 0 0 1-8.44-17.192l2.99-.248a23.239 23.239 0 0 0 7.479 15.23 23.585 23.585 0 0 0 39.521-17.188 23.193 23.193 0 0 0-6.7-16.334A23.532 23.532 0 0 0 27.062 14.5l.075-3a26.593 26.593 0 0 1 23.829 16.271 26.054 26.054 0 0 1 2.029 10.121 26.5 26.5 0 0 1-26.55 26.392Z" data-name="Icon ionic-ios-refresh"/><path fill="#540f11" d="m13.795 12.5 14-12.5v25Z" data-name="Polygon 2"/><path fill="#540f11" d="m18.295 12.5 6.5 5.8V6.7l-6.5 5.8m-4.5 0 14-12.5v25Z" data-name="Polygon 2 - Outline"/></svg>