<!-- Generated by IcoMoon.io -->
<svg version="1.1" xmlns="http://www.w3.org/2000/svg" width="24" height="32" viewBox="0 0 24 32">
<title>onehouse_hww_receivership</title>
<path fill="#8f7d7b" d="M13.961 13.191v-5.661c-0.111 0.126-0.249 0.225-0.406 0.288l-0.007 0.003c-0.146 0.067-0.316 0.107-0.496 0.111l-0.001 0v-1.173c0.179-0.030 0.338-0.080 0.488-0.149l-0.012 0.005c0.182-0.081 0.338-0.183 0.476-0.306l-0.002 0.001c0.143-0.128 0.257-0.285 0.333-0.463l0.003-0.008h1.182v7.353z"></path>
<path fill="#400d11" d="M15.023 0.733c-4.759 0.008-8.613 3.868-8.613 8.628 0 4.765 3.863 8.628 8.628 8.628s8.628-3.863 8.628-8.628c0-3.551-2.146-6.602-5.212-7.925l-0.056-0.022c-0.995-0.431-2.153-0.681-3.37-0.681-0.002 0-0.004 0-0.006 0h0zM15.023 0c5.194 0 9.405 4.211 9.405 9.405s-4.211 9.405-9.405 9.405c-5.194 0-9.405-4.211-9.405-9.405v0c0-5.194 4.211-9.405 9.405-9.405v0z"></path>
<path fill="#fff" d="M9.405 13.191c5.194 0 9.405 4.211 9.405 9.405s-4.211 9.405-9.405 9.405c-5.194 0-9.405-4.211-9.405-9.405v0c0-5.194 4.211-9.405 9.405-9.405v0z"></path>
<path fill="#400d11" d="M7.58 15.389h4.25v1.699h-4.25z"></path>
<path fill="#847170" d="M9.494 19.699h3.335v0.733h-3.335z"></path>
<path fill="#847170" d="M9.494 22.435h3.335v0.733h-3.335z"></path>
<path fill="#847170" d="M9.494 25.172h1.637v0.733h-1.637z"></path>
<path fill="#ea414b" d="M7.222 21.132l-0.887-1.089 0.567-0.463 0.32 0.393 0.926-1.132 0.568 0.464z"></path>
<path fill="#ea414b" d="M7.222 23.924l-0.887-1.089 0.567-0.463 0.32 0.393 0.926-1.132 0.568 0.464z"></path>
<path fill="#ea414b" d="M7.208 26.701l-0.887-1.090 0.568-0.463 0.319 0.393 0.925-1.132 0.567 0.464z"></path>
<path fill="#400d11" d="M4.508 15.873h10.392v12.876h-10.392zM14.168 16.606h-8.927v11.411h8.927z"></path>
</svg>
