<svg xmlns="http://www.w3.org/2000/svg" width="34" height="34"><path d="M32.5 17A15.5 15.5 0 1 1 17 1.5 15.5 15.5 0 0 1 32.5 17Z" data-name="Path 14034"/><path d="M17 0a17 17 0 0 1 6.618 32.663A17.004 17.004 0 0 1 10.382 1.337 16.9 16.9 0 0 1 17 0Zm0 31a14 14 0 1 0-9.9-4.1A13.908 13.908 0 0 0 17 31Z" data-name="Path 14034 - Outline"/><path d="M16.198 6.844V18.07l7.484 3.742" data-name="Path 14035"/><path fill="#f5e461" d="M23.681 23.312a1.494 1.494 0 0 1-.67-.159l-7.484-3.742a1.5 1.5 0 0 1-.829-1.342V6.844a1.5 1.5 0 1 1 3 0v10.3l6.655 3.327a1.5 1.5 0 0 1-.672 2.842Z" data-name="Path 14035 - Outline"/></svg>