<!-- Generated by IcoMoon.io -->
<svg version="1.1" xmlns="http://www.w3.org/2000/svg" width="24" height="32" viewBox="0 0 24 32">
<title>onehouse_hww_settlement</title>
<path fill="#8f7d7b" d="M14.911 13.258c-0.037 0.002-0.080 0.003-0.124 0.003-0.392 0-0.762-0.098-1.086-0.27l0.012 0.006c-0.289-0.179-0.505-0.453-0.607-0.777l-0.003-0.010c-0.114-0.36-0.179-0.775-0.179-1.205 0-0.037 0.001-0.075 0.001-0.112l-0 0.005v-1.987c-0-0.024-0-0.053-0-0.082 0-0.446 0.024-0.887 0.070-1.321l-0.005 0.054c0.032-0.362 0.128-0.695 0.276-0.998l-0.007 0.017c0.135-0.262 0.345-0.469 0.602-0.598l0.008-0.004c0.287-0.131 0.623-0.207 0.977-0.207 0.037 0 0.073 0.001 0.109 0.002l-0.005-0c0.005-0 0.012-0 0.019-0 0.304 0 0.595 0.059 0.861 0.166l-0.015-0.005c0.263 0.102 0.482 0.267 0.647 0.477l0.002 0.003c0.154 0.208 0.247 0.47 0.247 0.753 0 0.016-0 0.033-0.001 0.049l0-0.002v0.793h-1.416v-0.15c0-0.129-0.007-0.257-0.020-0.382l0.001 0.016c-0.009-0.113-0.042-0.217-0.096-0.308l0.002 0.003c-0.050-0.074-0.134-0.122-0.229-0.122-0.009 0-0.018 0-0.027 0.001l0.001-0c-0.013-0.002-0.028-0.002-0.044-0.002-0.119 0-0.226 0.053-0.298 0.138l-0 0.001c-0.061 0.099-0.097 0.22-0.097 0.348 0 0.015 0.001 0.030 0.001 0.045l-0-0.002v1.474c0.073-0.134 0.18-0.241 0.309-0.313l0.004-0.002c0.138-0.075 0.303-0.119 0.477-0.119 0.011 0 0.022 0 0.034 0.001l-0.002-0c0.029-0.002 0.064-0.003 0.098-0.003 0.312 0 0.602 0.092 0.845 0.251l-0.006-0.004c0.226 0.18 0.388 0.431 0.452 0.72l0.002 0.008c0.080 0.333 0.126 0.715 0.126 1.108 0 0.036-0 0.072-0.001 0.108l0-0.005c0 0.023 0.001 0.049 0.001 0.076 0 0.431-0.066 0.847-0.188 1.237l0.008-0.029c-0.107 0.35-0.317 0.642-0.594 0.849l-0.004 0.003c-0.292 0.193-0.651 0.308-1.036 0.308-0.036 0-0.071-0.001-0.107-0.003l0.005 0zM14.857 11.905c0.011 0.002 0.024 0.003 0.038 0.003 0.134 0 0.245-0.095 0.271-0.221l0-0.002c0.032-0.153 0.051-0.33 0.051-0.511 0-0.018-0-0.036-0.001-0.054l0 0.003v-0.592q0-0.601-0.338-0.601-0.388 0-0.388 0.522v0.91q0 0.543 0.366 0.543z"></path>
<path fill="#400d11" d="M15.023 0c5.193 0.003 9.401 4.214 9.401 9.407 0 3.871-2.338 7.196-5.679 8.64l-0.061 0.023c-1.069 0.458-2.313 0.724-3.618 0.724-5.195 0-9.407-4.212-9.407-9.407 0-3.857 2.322-7.172 5.644-8.624l0.061-0.024c1.075-0.467 2.327-0.739 3.643-0.739 0.006 0 0.012 0 0.019 0h-0.001zM15.023 18.076c4.788-0.003 8.668-3.886 8.668-8.674 0-3.569-2.156-6.635-5.237-7.966l-0.056-0.022c-0.989-0.425-2.14-0.673-3.349-0.673-4.791 0-8.674 3.884-8.674 8.674 0 3.562 2.147 6.622 5.217 7.958l0.056 0.022c0.991 0.431 2.145 0.681 3.358 0.681 0.006 0 0.012 0 0.018-0h-0.001z"></path>
<path fill="#fff" d="M9.405 13.191c5.194 0 9.405 4.211 9.405 9.405s-4.211 9.405-9.405 9.405c-5.194 0-9.405-4.211-9.405-9.405v0c0-5.194 4.211-9.405 9.405-9.405v0z"></path>
<path fill="#847170" d="M2.198 29.135h-0.733v-13.624h0.733z"></path>
<path fill="#847170" d="M15.365 16.914h-13.899v-0.733h13.899z"></path>
<path fill="#847170" d="M6.148 18.644h-0.733v-2.463h0.733z"></path>
<path fill="#400d11" d="M13.729 25.027h-10.602v-0.733h10.602z"></path>
<path fill="#ea414b" d="M8.427 18.974l2.902 2.245h-1.181v2.457h-3.444v-2.457h-1.182zM9.417 20.665l-0.989-0.765-0.99 0.766v2.278h1.979z"></path>
<path fill="#400d11" d="M3.127 17.911h10.602v8.715h-10.602zM12.996 18.644h-9.136v7.249h9.136z"></path>
</svg>
