<!-- Generated by IcoMoon.io -->
<svg version="1.1" xmlns="http://www.w3.org/2000/svg" width="24" height="32" viewBox="0 0 24 32">
<title>onehouse_hww_auction</title>
<path fill="#8f7d7b" d="M15.059 13.295c-0.028 0.001-0.062 0.002-0.095 0.002-0.485 0-0.933-0.158-1.295-0.426l0.006 0.004c-0.332-0.283-0.542-0.702-0.542-1.17 0-0.042 0.002-0.083 0.005-0.124l-0 0.005v-1.094h1.528v0.63c0 0.002 0 0.004 0 0.006 0 0.132 0.008 0.262 0.024 0.389l-0.002-0.015c0.011 0.113 0.049 0.216 0.108 0.303l-0.001-0.002c0.055 0.072 0.142 0.118 0.239 0.118 0.009 0 0.017-0 0.025-0.001l-0.001 0c0.012 0.002 0.026 0.003 0.040 0.003 0.117 0 0.219-0.065 0.272-0.162l0.001-0.002c0.048-0.111 0.076-0.241 0.076-0.377 0-0.012-0-0.024-0.001-0.036l0 0.002v-1.444c0-0.001 0-0.002 0-0.003 0-0.124-0.008-0.247-0.024-0.366l0.002 0.014c-0.011-0.11-0.048-0.21-0.104-0.296l0.002 0.003c-0.052-0.072-0.136-0.118-0.231-0.118-0.008 0-0.016 0-0.024 0.001l0.001-0q-0.417 0-0.417 0.605h-1.348v-3.908h3.504v1.378h-2.108v1.035c0.081-0.096 0.179-0.175 0.289-0.233l0.005-0.003c0.12-0.065 0.263-0.103 0.414-0.103 0.008 0 0.015 0 0.023 0l-0.001-0c0.020-0.001 0.043-0.001 0.066-0.001 0.275 0 0.534 0.072 0.758 0.197l-0.008-0.004c0.209 0.129 0.375 0.311 0.481 0.527l0.003 0.008c0.113 0.23 0.195 0.498 0.232 0.78l0.001 0.013c0.041 0.282 0.065 0.607 0.065 0.938 0 0.011-0 0.022-0 0.033v-0.002c0 0.018 0 0.039 0 0.059 0 0.401-0.025 0.796-0.074 1.184l0.005-0.046c-0.038 0.339-0.135 0.648-0.28 0.928l0.007-0.015c-0.135 0.252-0.338 0.452-0.584 0.579l-0.008 0.004c-0.275 0.129-0.598 0.205-0.938 0.205-0.034 0-0.067-0.001-0.1-0.002l0.005 0z"></path>
<path fill="#400d11" d="M15.023 0.733c-4.788 0.003-8.668 3.886-8.668 8.674 0 3.569 2.156 6.635 5.237 7.966l0.056 0.022c0.996 0.432 2.156 0.684 3.375 0.684 4.791 0 8.674-3.883 8.674-8.674 0-3.572-2.159-6.639-5.243-7.969l-0.056-0.022c-0.991-0.431-2.145-0.681-3.357-0.681-0.006 0-0.012 0-0.019 0h0.001zM15.023 0c5.194 0 9.405 4.211 9.405 9.405s-4.211 9.405-9.405 9.405c-5.194 0-9.405-4.211-9.405-9.405v0c0-5.194 4.211-9.405 9.405-9.405v0z"></path>
<path fill="#fff" d="M9.405 13.191c5.194 0 9.405 4.211 9.405 9.405s-4.211 9.405-9.405 9.405c-5.194 0-9.405-4.211-9.405-9.405v0c0-5.194 4.211-9.405 9.405-9.405v0z"></path>
<path fill="#ea414b" d="M14.761 21.885l-0.205-0.704c0.474-0.141 0.814-0.573 0.814-1.084s-0.34-0.943-0.806-1.082l-0.008-0.002 0.205-0.703c0.782 0.233 1.342 0.945 1.342 1.788 0 0.185-0.027 0.364-0.078 0.533l0.003-0.013c-0.182 0.613-0.655 1.085-1.255 1.264l-0.013 0.003z"></path>
<path fill="#ea414b" d="M15.214 23.298l-0.293-0.672c0.537-0.232 0.983-0.587 1.317-1.032l0.006-0.008c0.31-0.41 0.496-0.928 0.496-1.49s-0.186-1.080-0.501-1.496l0.005 0.006c-0.34-0.453-0.786-0.809-1.302-1.032l-0.021-0.008 0.293-0.672c0.659 0.286 1.207 0.724 1.615 1.271l0.007 0.010c0.397 0.529 0.636 1.197 0.636 1.921s-0.239 1.391-0.642 1.929l0.006-0.008c-0.416 0.558-0.963 0.995-1.597 1.272l-0.025 0.010z"></path>
<path fill="#400d11" d="M10.593 22.963h-0.733v-3.253h0.733z"></path>
<path fill="#400d11" d="M13.815 14.703v11.061l-4.685-2.989h-4.622v-4.923l4.617-0.010zM13.082 24.427v-8.352l-3.733 2.499-4.108 0.009v3.458h4.104z"></path>
<path fill="#400d11" d="M9.227 26.345h-2.503l-1.13-3.625 0.7-0.218 0.97 3.11h0.957l-0.932-2.889 0.697-0.225z"></path>
</svg>
