<svg xmlns="http://www.w3.org/2000/svg" width="55" height="55"><path fill="#540f11" d="M27.5 0a27.507 27.507 0 0 1 10.7 52.838A27.507 27.507 0 0 1 16.8 2.162 27.329 27.329 0 0 1 27.5 0Zm0 52a24.507 24.507 0 0 0 9.536-47.075 24.507 24.507 0 0 0-19.072 45.15A24.345 24.345 0 0 0 27.5 52Z" data-name="Path 14034"/><path fill="#f85a5e" d="M36.762 34.996a1.494 1.494 0 0 1-.67-.159l-9.776-4.888a1.5 1.5 0 0 1-.829-1.342V13.943a1.5 1.5 0 0 1 3 0V27.68l8.947 4.473a1.5 1.5 0 0 1-.672 2.842Z" data-name="Path 14035"/></svg>