<svg xmlns="http://www.w3.org/2000/svg" width="19.862" height="26.286"><path d="M19.862 8.686h-3.723V6.2a6.207 6.207 0 0 0-6.2-6.2 6.565 6.565 0 0 0-6.396 6.43h2.542a3.85 3.85 0 0 1 3.847-3.847 3.755 3.755 0 0 1 3.733 3.847v2.256H.01c-.019-.061 0 1.325 0 17.581-.006.059 19.862-.037 19.854 0-.002-16.256-.046-17.603-.002-17.581Zm-2.842 14.89H2.699V11.413H17.02Z" data-name="Icon material-lock-open"/><g data-name="Group 11526" transform="translate(7.375 13.225)"><circle cx="2.065" cy="2.065" r="2.065" data-name="Ellipse 115" transform="translate(.501 1)"/><ellipse cx=".925" cy="2.5" data-name="Ellipse 116" rx=".925" ry="2.5" transform="translate(1.641 2.131)"/></g></svg>