<svg xmlns="http://www.w3.org/2000/svg" width="21.096" height="17.095" viewBox="0 0 21.096 17.095"><path d="M18.926 4.23c.013.187.013.375.013.562a12.219 12.219 0 0 1-12.3 12.3A12.205 12.205 0 0 1 0 15.154a8.942 8.942 0 0 0 1.044.054 8.664 8.664 0 0 0 5.368-1.847 4.331 4.331 0 0 1-4.042-3 5.45 5.45 0 0 0 .817.067 4.571 4.571 0 0 0 1.138-.147A4.314 4.314 0 0 1 .858 6.075v-.054a4.354 4.354 0 0 0 1.954.549A4.33 4.33 0 0 1 1.475.789a12.282 12.282 0 0 0 8.916 4.524 4.881 4.881 0 0 1-.107-.99 4.326 4.326 0 0 1 7.479-2.954A8.509 8.509 0 0 0 20.507.325a4.313 4.313 0 0 1-1.9 2.383 8.674 8.674 0 0 0 2.49-.669 9.286 9.286 0 0 1-2.17 2.23Z"/></svg>